<?xml version="1.0" standalone="no"?>
<!DOCTYPE svg PUBLIC "-//W3C//DTD SVG 20010904//EN"
 "http://www.w3.org/TR/2001/REC-SVG-20010904/DTD/svg10.dtd">
<svg version="1.0" xmlns="http://www.w3.org/2000/svg"
 width="70" height="70" viewBox="0 0 5000.000000 5000.000000"
 preserveAspectRatio="xMidYMid meet">
<metadata>
Created by potrace 1.16, written by Peter Selinger 2001-2019
</metadata>
<g transform="translate(0.000000,5000.000000) scale(0.100000,-0.100000)"
fill="#FFFFFF" stroke="none">
<path d="M24500 38819 c-937 -19 -1832 -98 -2820 -250 -80 -12 -146 -26 -148
-30 -2 -4 -9 -6 -16 -3 -20 8 -774 -132 -826 -153 -8 -3 -18 -6 -22 -5 -13 3
-368 -79 -648 -149 -408 -103 -400 -100 -400 -124 0 -16 -7 -20 -32 -21 -75
-2 -388 -78 -452 -110 -36 -19 -147 -124 -141 -134 3 -4 -13 -15 -35 -25 -46
-21 -53 -37 -11 -25 41 11 84 42 72 50 -10 6 118 33 219 46 33 4 41 3 30 -5
-13 -10 -13 -11 0 -11 29 0 90 21 85 30 -3 5 11 14 30 21 28 10 35 18 35 39 0
24 6 28 51 38 28 7 69 12 92 12 23 0 101 14 172 31 72 16 164 34 205 39 75 9
244 35 310 46 l35 7 -24 -27 -24 -26 56 0 c31 0 59 -4 62 -10 3 -5 33 -10 65
-10 38 0 62 -5 67 -13 4 -7 23 -19 41 -26 25 -10 30 -17 22 -26 -8 -9 12 -7
62 7 40 11 118 24 173 28 54 4 101 12 102 17 2 6 13 9 23 6 11 -3 40 2 66 11
60 20 61 20 38 -5 l-19 -21 50 6 50 7 -35 -21 c-28 -17 -30 -20 -10 -15 64 17
70 17 70 5 0 -19 31 -39 61 -40 15 0 34 10 47 25 21 24 27 25 129 25 77 0 104
3 96 11 -6 6 -36 9 -71 7 -57 -3 -60 -2 -45 14 9 10 32 21 52 24 20 4 30 9 24
11 -22 8 -14 31 15 41 15 6 22 11 15 11 -7 1 -34 -8 -60 -18 -61 -24 -163 -38
-163 -22 0 6 3 10 8 10 20 -3 32 2 32 15 0 8 25 29 55 46 32 18 52 36 49 42
-4 6 -2 8 4 4 11 -6 62 12 62 23 0 3 20 7 44 8 24 1 61 9 81 17 25 11 69 16
132 16 92 0 94 -1 91 -22 -2 -12 -14 -28 -28 -35 -14 -7 -18 -13 -10 -13 13 0
13 -1 0 -10 -12 -8 -11 -10 7 -10 12 0 29 -3 39 -7 13 -5 15 -3 9 7 -5 9 -4
11 3 6 6 -4 21 -2 32 4 17 9 20 8 20 -10 0 -11 -6 -20 -14 -20 -8 0 -18 -4
-21 -10 -9 -15 53 0 98 23 20 10 39 23 42 28 3 4 15 5 26 0 26 -9 100 2 159
24 57 21 155 31 164 17 4 -7 -14 -18 -44 -29 -39 -14 -50 -22 -46 -36 2 -9 0
-15 -5 -11 -5 3 -9 0 -9 -7 0 -7 -3 -10 -6 -6 -4 3 -23 -2 -43 -12 -34 -17
-124 -41 -156 -41 -12 0 -11 7 5 33 24 39 24 43 4 51 -8 3 -13 2 -9 -3 3 -5
-16 -20 -42 -33 -97 -50 -123 -69 -123 -93 0 -21 3 -22 45 -17 44 4 45 4 45
-23 0 -18 4 -25 13 -22 213 90 247 100 247 72 0 -16 -66 -65 -88 -65 -7 0 -10
-5 -7 -10 4 -6 11 -7 17 -4 29 18 -2 -18 -41 -47 -63 -48 -63 -64 1 -34 29 14
59 25 66 25 6 0 12 5 12 11 0 5 5 7 11 4 5 -4 43 9 82 28 81 40 160 52 165 26
1 -9 -4 -22 -13 -29 -8 -7 -15 -10 -15 -7 0 3 -21 -3 -47 -13 -32 -11 -56 -29
-71 -51 -30 -44 -102 -78 -169 -78 -28 -1 -55 3 -58 9 -4 6 -18 4 -38 -6 -44
-23 -43 -21 -17 -49 30 -32 35 -64 13 -84 -23 -20 -54 -26 -63 -11 -5 8 -20 8
-56 -4 l-49 -15 40 0 40 -1 -55 -30 c-66 -35 -90 -38 -90 -10 0 12 7 20 18 20
9 0 24 5 32 11 11 7 6 8 -19 4 -23 -5 -31 -4 -27 4 4 6 0 11 -9 11 -11 0 -15
5 -11 15 4 10 -1 15 -16 15 -46 0 -100 -25 -133 -62 -25 -26 -43 -38 -62 -38
-62 0 -180 -59 -337 -168 -61 -43 -75 -57 -62 -62 17 -6 17 -7 1 -20 -9 -7
-23 -26 -31 -41 l-14 -28 31 11 c25 8 38 7 65 -6 19 -9 37 -24 41 -33 3 -10
15 -26 27 -35 20 -16 20 -17 2 -37 l-19 -21 46 1 c26 1 50 -1 53 -4 4 -3 -12
-27 -35 -53 -23 -26 -39 -54 -36 -61 2 -8 1 -11 -5 -8 -5 3 -14 -11 -20 -32
-13 -41 0 -93 21 -93 21 0 142 128 133 141 -4 7 -3 10 3 6 11 -7 26 17 27 42
1 8 25 21 61 31 64 17 106 37 168 78 41 28 87 104 87 146 0 16 7 27 20 31 11
4 17 11 14 17 -4 6 -2 8 3 5 6 -4 22 2 36 13 14 11 29 20 34 20 5 0 44 36 88
80 43 44 92 84 107 89 17 6 26 6 23 1 -9 -15 44 -24 71 -11 14 6 26 11 28 11
1 0 9 -16 16 -36 14 -34 16 -36 56 -32 l41 3 -49 -54 c-29 -32 -47 -60 -44
-68 4 -8 6 -22 6 -30 0 -26 67 -6 136 40 34 23 61 44 59 47 -2 3 7 6 19 6 15
1 22 -4 22 -16 0 -10 -4 -16 -8 -14 -4 3 -8 -30 -8 -74 0 -70 -3 -81 -24 -101
l-24 -22 25 -39 c14 -21 37 -41 51 -45 13 -3 35 -14 47 -23 21 -15 21 -19 8
-39 -10 -15 -11 -23 -4 -23 29 0 -15 -90 -54 -109 -19 -9 -19 -10 -1 -10 18
-1 17 -4 -7 -29 -15 -16 -24 -32 -20 -37 5 -4 3 -5 -3 -2 -15 9 -49 -29 -34
-38 6 -4 8 -15 5 -26 -7 -22 -2 -23 25 -9 16 9 18 8 13 -6 -4 -10 -2 -15 3
-11 19 11 9 -45 -10 -59 -19 -14 -19 -14 2 -14 19 0 22 -6 22 -38 0 -42 -33
-92 -62 -92 -21 0 -42 26 -32 41 5 9 2 10 -12 4 -10 -4 -30 -9 -44 -12 l-25
-4 24 14 23 14 -23 6 c-13 4 -54 7 -91 7 -61 0 -68 2 -68 19 0 11 9 23 20 26
11 3 20 12 20 20 0 7 12 21 27 30 15 10 54 45 87 77 l61 60 -35 -7 c-43 -9
-101 -36 -95 -45 2 -3 -4 -6 -13 -6 -9 -1 -44 -2 -78 -4 -33 -2 -67 1 -74 5
-8 5 -52 11 -99 13 -79 4 -85 3 -103 -19 -11 -13 -17 -19 -15 -14 7 13 -111
-42 -135 -63 -10 -8 -15 -19 -12 -23 3 -5 -1 -7 -8 -4 -7 2 -44 -20 -82 -50
-86 -68 -65 -72 35 -6 69 45 158 86 167 76 2 -2 -6 -25 -17 -51 -12 -26 -20
-48 -19 -48 2 -1 13 -7 25 -13 46 -26 97 -16 154 28 38 31 51 37 47 23 -12
-43 -12 -49 -1 -47 25 5 1 -26 -30 -38 -31 -13 -31 -13 -7 -19 25 -6 25 -6 -8
-24 -31 -16 -61 -18 -72 -5 -7 10 -158 -42 -214 -74 -57 -32 -98 -36 -94 -9 4
24 17 36 63 55 l40 16 -47 0 c-27 1 -48 -3 -48 -8 0 -5 -50 -26 -110 -46 -64
-21 -116 -45 -123 -55 -7 -11 -25 -24 -39 -29 -30 -11 -49 -68 -28 -81 21 -13
1 -30 -36 -30 -39 0 -89 -22 -97 -43 -3 -8 -32 -20 -66 -27 -33 -7 -58 -17
-55 -22 8 -12 -30 -53 -73 -79 -22 -14 -33 -28 -33 -44 0 -22 -20 -47 -36 -44
-26 4 -36 -1 -25 -15 8 -10 9 -21 1 -41 -8 -22 -8 -30 2 -36 29 -18 -35 -149
-72 -149 -6 0 -10 -4 -10 -10 0 -5 -6 -7 -14 -4 -8 3 -29 -8 -47 -24 -19 -16
-45 -32 -59 -35 -14 -4 -50 -25 -80 -48 -30 -22 -72 -50 -93 -60 -22 -12 -35
-24 -31 -31 4 -7 3 -8 -4 -4 -7 4 -20 -6 -32 -26 -18 -29 -20 -50 -20 -180 l0
-148 -37 -55 c-44 -64 -79 -74 -100 -28 -16 34 -18 185 -2 163 8 -11 9 -4 6
29 -7 58 -16 65 -66 50 -38 -11 -43 -10 -64 9 -20 19 -35 22 -111 22 -79 0
-90 -2 -107 -22 -10 -13 -18 -29 -19 -35 0 -7 -11 -13 -24 -13 -14 0 -28 -4
-31 -10 -3 -5 -20 -10 -36 -10 -22 0 -32 7 -41 25 -8 18 -19 25 -39 25 -15 0
-31 5 -34 10 -12 19 -52 10 -111 -26 -32 -20 -75 -42 -95 -49 -91 -33 -129
-72 -129 -132 0 -14 -8 -37 -19 -51 -30 -44 -81 -149 -74 -156 4 -3 2 -6 -4
-6 -24 0 -45 -76 -40 -146 8 -112 36 -218 54 -200 3 2 17 -6 31 -19 19 -18 30
-21 43 -14 10 5 29 9 44 9 27 0 145 55 157 74 4 6 8 7 8 1 0 -5 9 4 19 22 11
17 29 34 40 38 11 3 30 18 41 32 11 14 20 23 20 20 0 -3 23 3 50 14 28 10 73
19 101 19 l52 0 -8 -32 c-4 -18 -7 -38 -8 -45 0 -7 -5 -11 -11 -10 -6 1 -10
-4 -8 -11 1 -8 -2 -11 -8 -7 -10 6 -50 -51 -50 -72 0 -17 -54 -96 -58 -84 -2
6 -21 -11 -42 -37 -95 -115 -91 -109 -75 -122 13 -10 19 -10 33 4 15 13 40 16
124 16 99 0 106 -1 128 -25 13 -14 29 -25 37 -25 9 0 13 -16 13 -53 0 -44 -4
-58 -25 -77 -22 -20 -25 -32 -25 -86 0 -35 -4 -66 -10 -69 -19 -12 -11 -90 11
-116 12 -13 25 -23 29 -22 4 1 11 -9 14 -22 4 -14 13 -25 21 -25 8 0 15 -4 15
-9 0 -17 33 -21 50 -6 20 18 43 20 38 3 -3 -7 -15 -14 -27 -16 -19 -3 -20 -6
-9 -20 9 -11 10 -14 1 -8 -9 5 -11 2 -7 -8 3 -9 10 -14 14 -11 5 3 6 -4 3 -15
-7 -25 -53 -28 -53 -4 0 10 -6 14 -14 11 -10 -4 -13 -1 -9 9 4 11 -4 14 -31
14 -20 0 -36 -5 -36 -11 0 -8 -5 -8 -15 1 -8 7 -15 29 -15 49 0 40 -38 89 -59
76 -7 -4 -11 3 -11 17 l0 23 -20 -25 c-16 -20 -20 -22 -20 -7 0 9 -7 17 -15
17 -10 0 -15 10 -15 31 0 20 -8 37 -22 48 -16 14 -18 20 -8 26 9 5 11 4 6 -3
-4 -7 -2 -12 3 -12 17 0 13 13 -14 44 -13 16 -23 32 -20 36 2 4 -4 15 -15 25
-11 10 -20 24 -20 32 0 7 -4 13 -10 13 -5 0 -10 -4 -10 -10 0 -5 -13 -10 -29
-10 -17 0 -33 5 -36 10 -3 6 -13 10 -22 10 -9 0 -26 11 -39 25 -13 14 -34 25
-47 25 -16 0 -37 14 -60 39 -19 22 -38 36 -42 33 -3 -4 -3 1 0 9 4 11 -5 26
-25 43 -39 32 -72 41 -98 27 -33 -18 -58 -13 -131 24 -37 19 -80 35 -93 35
-32 0 -89 20 -106 37 -8 7 -18 11 -23 7 -5 -3 -9 -2 -8 3 5 26 -5 40 -35 51
-18 7 -41 21 -51 31 -9 11 -22 18 -28 17 -7 -2 -9 -1 -5 1 4 3 -6 23 -22 45
-31 42 -40 98 -17 98 42 0 50 146 12 228 -14 30 -25 64 -25 77 0 15 -8 26 -20
30 -11 3 -20 15 -20 25 0 16 4 17 32 9 40 -11 43 -8 24 30 -9 16 -16 37 -16
46 0 8 -4 15 -8 15 -29 0 -47 211 -20 238 9 9 7 13 -8 17 -10 4 -27 11 -36 16
-25 13 -24 14 -42 -41 -13 -39 -14 -55 -5 -71 6 -13 8 -40 4 -68 -6 -44 -7
-76 -4 -158 2 -47 -11 -124 -23 -139 -5 -7 -4 -14 5 -17 8 -3 11 -18 9 -45 -3
-29 -10 -42 -27 -50 -21 -10 -23 -8 -28 22 -3 17 -19 55 -36 84 -17 29 -31 55
-31 57 0 2 16 9 35 15 22 7 35 18 35 29 0 21 -74 93 -85 83 -4 -4 -5 0 -3 8 1
8 -2 14 -7 13 -6 -1 -11 6 -11 15 -1 9 -4 24 -8 33 -5 11 -1 18 13 22 10 2 26
18 35 35 15 28 14 32 -9 66 -35 52 -35 156 0 241 14 33 25 66 25 73 0 16 -24
42 -39 42 -6 0 -11 7 -11 15 0 9 -9 15 -21 15 -16 0 -19 4 -14 18 10 23 24
127 31 232 6 73 10 87 30 103 15 12 24 29 24 47 0 22 10 35 49 63 27 20 62 53
77 74 16 21 67 76 114 122 47 47 84 89 82 94 -1 4 2 5 9 2 6 -4 54 37 112 94
l102 102 48 -2 c36 -2 53 2 68 17 18 19 19 24 7 70 -6 27 -22 60 -35 74 l-23
26 44 43 c30 29 42 49 39 62 -4 13 4 24 26 36 27 15 32 23 29 50 -2 17 0 29 4
27 16 -10 48 17 48 40 0 16 12 32 40 50 22 14 40 31 40 36 0 6 19 31 41 55
l42 45 -52 0 c-59 0 -69 12 -53 60 8 20 8 30 1 30 -6 0 -17 7 -26 16 -10 10
-29 14 -52 12 -28 -2 -38 2 -46 18 l-10 21 -65 -19 c-36 -11 -102 -31 -147
-44 -46 -14 -100 -24 -120 -22 -33 3 -20 9 105 51 137 47 177 66 110 52 -43
-9 -302 -100 -354 -125 -23 -11 -46 -20 -53 -20 -6 0 -11 -4 -11 -10 0 -5 -3
-9 -7 -8 -5 2 -33 -5 -63 -14 -30 -9 -77 -22 -104 -29 -27 -7 -63 -25 -80 -39
-20 -18 -56 -33 -101 -43 -38 -8 -79 -18 -90 -22 -11 -3 -2 4 20 16 22 13 43
22 48 21 4 -1 7 3 7 9 0 5 4 8 9 5 5 -3 14 0 20 8 7 8 22 17 35 20 39 10 160
70 149 73 -6 2 -27 -3 -47 -11 -39 -16 -45 -12 -20 15 16 17 15 18 -17 9 -68
-20 -78 -8 -24 28 19 12 42 22 50 22 17 0 19 9 5 30 -8 12 -15 12 -59 -4 -27
-9 -60 -16 -73 -14 -19 3 -14 7 22 19 26 9 49 24 55 37 5 12 23 27 40 33 16 7
37 18 46 26 20 17 181 53 414 94 80 14 135 37 135 56 0 25 -178 19 -253 -8
-28 -10 -65 -19 -80 -19 -26 0 -28 -3 -23 -25 6 -22 3 -25 -19 -25 -14 0 -25
5 -25 10 0 6 -9 10 -21 10 -26 0 -20 24 7 29 39 7 60 41 27 41 -16 1 -16 2 1
15 19 14 18 15 -10 15 -49 0 -462 -151 -744 -272 -462 -198 -632 -277 -623
-291 3 -6 1 -7 -5 -3 -17 10 -494 -230 -519 -262 -7 -9 -13 -12 -13 -8 0 9
-55 -21 -252 -137 -75 -44 -134 -85 -131 -90 3 -6 1 -7 -5 -3 -6 4 -24 -2 -39
-12 -16 -11 -52 -34 -80 -52 -29 -18 -53 -36 -53 -41 0 -5 -3 -8 -7 -7 -16 3
-62 -25 -56 -35 3 -6 1 -7 -4 -4 -11 7 -269 -169 -266 -182 1 -4 -4 -8 -11 -8
-15 0 -89 -50 -128 -86 -16 -15 -28 -24 -28 -21 0 11 -344 -273 -460 -380
-111 -103 -358 -354 -444 -451 -132 -148 -380 -479 -388 -516 -2 -6 -14 -22
-26 -36 -13 -13 -21 -30 -18 -38 3 -8 0 -17 -6 -21 -7 -4 -8 -3 -4 4 4 7 5 12
3 12 -20 0 -260 -476 -253 -503 2 -9 0 -15 -4 -12 -5 3 -18 -21 -30 -52 -35
-91 -70 -194 -68 -201 1 -4 -4 -20 -11 -37 -19 -46 -59 -208 -63 -251 -2 -22
-6 -41 -9 -44 -3 -3 -13 -54 -22 -115 -61 -400 -32 -828 83 -1220 45 -154 53
-175 62 -175 5 0 7 -4 3 -9 -7 -13 67 -201 77 -195 4 3 6 -1 3 -8 -12 -31 294
-586 315 -573 4 3 7 -3 6 -13 0 -9 5 -16 12 -14 8 1 11 -2 7 -7 -3 -6 11 -34
32 -63 46 -66 160 -216 184 -243 10 -11 48 -56 85 -100 195 -233 599 -625 626
-609 7 4 8 2 4 -4 -12 -19 376 -328 396 -315 6 3 8 1 5 -4 -4 -6 21 -30 56
-54 34 -24 62 -42 62 -40 0 3 13 -7 29 -22 16 -15 34 -27 41 -27 7 0 19 -7 26
-17 17 -20 219 -155 219 -146 0 4 10 -3 23 -14 43 -40 237 -154 248 -147 7 4
9 3 6 -3 -8 -13 171 -115 185 -107 6 4 8 3 5 -3 -8 -12 350 -206 365 -197 7 5
8 3 3 -6 -6 -10 -4 -12 9 -7 9 4 15 3 12 -1 -4 -7 243 -136 262 -137 4 0 31
-13 60 -28 30 -15 59 -24 64 -20 6 3 8 2 5 -4 -4 -5 22 -22 56 -37 271 -120
409 -176 419 -170 6 4 8 3 5 -2 -8 -13 665 -277 733 -287 8 -2 20 -6 27 -10
29 -18 225 -77 236 -71 7 4 9 3 4 -1 -9 -10 131 -56 548 -179 433 -127 1323
-337 1660 -391 17 -3 145 -25 285 -49 337 -59 655 -106 945 -141 204 -24 279
-33 295 -33 41 -2 294 -33 298 -37 3 -3 -66 -5 -154 -6 -268 -1 -139 -16 176
-21 283 -4 290 -3 160 8 -74 7 -142 13 -150 14 -11 1 -10 3 4 9 22 9 -136 41
-202 41 -44 0 -133 20 -291 66 -46 13 -106 24 -133 24 -42 0 -179 28 -228 46
-12 5 -11 8 5 14 46 17 -109 43 -355 59 -74 5 -160 16 -190 25 -30 10 -95 21
-144 25 -60 6 -93 13 -100 23 -6 8 -18 18 -26 21 -16 8 60 1 100 -9 l25 -6
-22 20 c-12 11 -20 22 -17 24 2 3 -16 11 -41 18 -25 7 -48 17 -51 21 -3 5 101
9 230 9 203 0 236 2 236 15 0 10 10 15 34 15 19 0 38 4 41 10 4 6 30 -2 65
-20 33 -17 66 -27 75 -24 9 4 33 2 53 -4 85 -24 152 -33 227 -30 l80 3 -52 28
c-29 15 -65 27 -80 27 -15 0 -47 11 -71 25 -24 13 -51 26 -60 27 -9 2 -19 6
-22 9 -3 3 -16 13 -30 23 -24 16 -21 17 105 12 72 -3 175 -8 230 -11 81 -5 98
-4 88 6 -30 30 -9 28 35 -4 50 -37 79 -44 225 -53 49 -4 77 -2 77 5 0 5 -4 13
-10 16 -25 15 -6 21 28 9 20 -7 54 -13 75 -14 21 0 48 -5 60 -11 16 -9 22 -9
25 0 2 6 25 11 53 11 27 0 49 4 49 10 0 24 -99 97 -114 83 -3 -4 -6 -2 -6 4 0
6 -8 14 -17 18 -11 3 -4 -8 15 -27 17 -19 32 -37 32 -41 0 -13 -97 -7 -109 7
-6 7 -26 13 -43 12 -36 -1 -88 36 -88 63 0 9 11 21 25 28 14 6 23 7 19 2 -3
-5 0 -9 5 -9 22 0 9 23 -46 81 -31 32 -51 59 -45 59 18 0 66 -23 92 -44 14
-11 4 2 -22 30 l-48 50 0 97 c0 58 4 97 10 97 6 0 10 6 10 14 0 8 7 16 15 20
9 3 15 0 15 -9 0 -8 -4 -15 -10 -15 -5 0 -10 -8 -10 -18 0 -22 43 -65 55 -55
4 5 5 3 1 -4 -3 -6 -2 -14 4 -18 15 -10 12 -35 -5 -35 -10 0 -15 -10 -15 -34
0 -32 18 -59 36 -54 5 1 20 -4 33 -11 19 -10 32 -11 62 -2 34 10 44 9 81 -10
24 -12 71 -48 105 -81 40 -37 67 -57 75 -52 7 4 10 4 7 0 -3 -3 31 -43 77 -88
46 -44 80 -86 77 -92 -4 -6 -6 -27 -4 -47 2 -35 2 -36 -30 -31 -22 3 -30 1
-25 -7 5 -8 -13 -11 -61 -12 -47 0 -62 -3 -48 -9 11 -5 34 -9 51 -9 38 -1 84
-22 84 -38 0 -7 -8 -13 -17 -13 -13 -1 -10 -5 10 -16 15 -8 33 -12 39 -8 7 4
8 3 4 -4 -5 -8 2 -12 21 -12 15 0 55 -11 88 -25 40 -16 80 -25 120 -25 40 0
80 -8 120 -25 50 -20 77 -25 162 -25 78 0 116 -5 155 -20 52 -19 52 -19 82 0
l31 20 -65 0 c-54 0 -70 4 -95 25 -16 13 -24 24 -17 25 18 0 14 25 -8 45 -22
20 -28 75 -7 75 7 0 29 -11 50 -25 20 -14 42 -23 49 -19 6 4 8 3 5 -3 -4 -6
11 -18 33 -28 21 -10 49 -28 61 -41 19 -20 32 -24 86 -24 40 0 62 4 58 10 -4
6 27 10 86 10 l93 0 -28 29 c-25 26 -34 29 -99 30 -63 1 -74 4 -100 28 l-28
28 27 5 c19 4 33 17 48 47 l21 42 105 1 106 0 37 38 c41 42 45 52 21 52 -25 0
-12 33 19 48 16 8 31 21 34 30 17 48 67 68 93 37 18 -22 57 -19 63 5 6 24 36
38 47 21 5 -9 33 -12 93 -9 47 2 85 1 85 -2 -2 -27 5 -28 39 -5 24 16 52 25
75 25 20 0 40 5 43 10 3 6 22 10 41 10 30 0 34 3 29 19 -3 12 0 21 10 25 9 3
13 2 10 -4 -3 -6 1 -10 10 -10 10 0 13 5 9 12 -5 7 -3 8 5 4 7 -5 10 -11 7
-14 -10 -9 36 -52 56 -52 10 0 36 12 58 26 27 18 49 25 68 22 24 -3 31 1 47
34 l18 38 81 0 c75 0 82 -2 91 -22 10 -22 15 -23 125 -21 177 2 251 17 233 46
-3 5 -1 7 4 4 11 -7 40 20 43 38 1 6 4 12 7 15 4 3 3 -1 -1 -7 -5 -9 0 -13 13
-13 12 0 21 -6 21 -14 0 -15 21 -26 51 -26 10 0 19 -6 19 -14 0 -32 26 -37 64
-11 20 14 48 25 62 25 14 0 23 4 20 8 -2 4 30 9 72 11 42 1 81 7 87 12 5 5 26
9 47 9 57 0 90 18 86 49 -2 17 2 25 10 23 17 -3 68 24 84 45 18 25 29 27 144
31 83 3 103 0 114 -13 9 -11 10 -19 3 -26 -12 -12 6 -59 22 -59 6 0 15 -10 20
-22 9 -21 18 -23 118 -28 l108 -5 -48 -47 c-26 -25 -73 -59 -103 -74 -47 -25
-51 -29 -31 -34 22 -5 22 -6 4 -21 -10 -9 -37 -26 -60 -38 -49 -25 -55 -41
-15 -41 27 0 160 64 248 119 44 28 56 31 133 31 78 1 93 4 164 38 43 21 76 40
73 42 -2 3 14 6 37 8 28 2 50 11 67 27 25 24 33 25 137 25 86 0 113 3 123 15
7 8 18 15 25 15 7 0 24 10 39 21 31 24 46 18 28 -11 -12 -20 -8 -20 168 -20
l180 0 68 34 c59 30 189 86 199 86 2 0 3 -16 3 -35 l0 -35 59 0 c60 0 118 23
149 60 8 8 11 10 7 3 -6 -13 53 -12 74 1 6 4 11 3 11 -3 0 -5 -4 -13 -10 -16
-18 -11 -11 -25 13 -25 13 0 26 -9 32 -22 9 -20 17 -23 56 -21 26 0 68 10 94
22 44 19 66 21 299 21 241 0 253 1 309 24 53 22 57 23 57 6 0 -10 -9 -22 -20
-25 -11 -3 -20 -11 -20 -17 0 -6 -3 -9 -6 -5 -4 3 -21 -1 -38 -11 -31 -17 -29
-17 107 -20 75 -1 137 -6 137 -10 0 -10 -33 -36 -51 -40 -23 -6 -39 -23 -39
-44 0 -19 5 -20 53 -15 28 3 62 8 75 12 26 9 31 -15 7 -35 -23 -19 -18 -30 13
-30 24 -1 25 -2 10 -14 -10 -7 -15 -16 -11 -20 4 -4 0 -4 -8 -1 -11 4 -18 -1
-22 -14 -5 -20 -1 -21 61 -21 l67 -1 -30 -24 c-16 -14 -65 -37 -107 -51 -65
-21 -83 -24 -110 -15 -18 6 -37 11 -42 10 -5 0 -12 4 -16 11 -5 8 -27 5 -81
-10 -40 -11 -93 -20 -117 -20 -23 0 -59 -7 -79 -15 -19 -8 -55 -15 -80 -15
-43 0 -213 -37 -223 -49 -3 -3 -12 -7 -20 -7 -55 -5 -540 -157 -579 -183 -17
-11 -66 -17 -180 -22 -134 -6 -178 -13 -319 -48 -90 -23 -175 -47 -190 -55
-15 -7 -52 -19 -82 -26 -59 -13 -153 -50 -146 -57 4 -5 445 55 466 64 8 3 38
7 65 9 122 8 828 141 1245 234 409 90 1321 335 1306 350 -2 3 6 6 18 6 39 3
746 242 866 293 14 5 117 47 230 91 112 45 207 84 210 88 3 4 12 8 20 10 31 6
70 25 70 34 0 5 4 7 9 3 5 -3 94 33 198 81 103 47 209 95 235 106 27 12 45 25
41 31 -3 5 -1 7 5 3 12 -7 62 13 62 26 0 5 4 7 8 4 12 -7 367 180 365 193 -2
6 3 8 10 5 15 -5 120 50 111 58 -3 3 1 5 8 5 21 -3 168 85 161 96 -3 6 -1 7 5
3 14 -8 52 13 272 153 201 127 437 287 468 318 12 12 22 20 22 17 0 -8 337
253 385 299 11 10 35 30 52 44 18 14 30 29 27 34 -3 5 -1 8 4 7 11 -3 21 5 99
79 29 28 55 48 58 45 3 -3 5 2 5 12 0 11 4 14 12 10 8 -5 9 -2 5 10 -4 10 -3
15 3 11 13 -8 151 125 143 138 -3 6 -2 7 4 4 17 -11 392 409 393 439 0 6 7 18
16 25 39 32 226 305 284 413 15 28 38 69 51 91 13 22 23 42 22 45 -1 3 4 12
12 20 24 28 56 101 49 113 -4 7 -4 9 1 5 6 -6 35 33 35 48 0 11 -48 2 -69 -12
-22 -16 -23 -15 -19 7 2 16 13 26 33 33 70 21 81 28 94 59 172 429 242 764
243 1162 0 186 -17 412 -33 431 -5 6 -6 13 -3 17 13 13 -67 353 -120 502 -84
241 -266 622 -289 608 -6 -3 -7 -1 -3 6 9 14 -95 182 -108 174 -5 -3 -6 -1 -3
4 4 6 -17 43 -46 83 -28 40 -56 80 -62 88 -31 49 -84 110 -90 104 -4 -4 -5 -1
-3 5 2 7 -26 49 -61 93 -55 69 -66 78 -80 67 -14 -10 -14 -10 -3 5 11 14 5 25
-49 85 -34 37 -66 67 -71 65 -5 -1 -7 1 -4 6 7 12 -78 94 -89 85 -4 -5 -5 -3
-1 4 8 15 -121 146 -136 137 -6 -4 -8 -3 -4 4 7 12 -201 208 -220 206 -8 -1
-12 2 -9 6 14 22 -532 449 -555 435 -6 -4 -9 -1 -8 6 6 29 -768 519 -794 503
-6 -4 -9 -3 -5 2 6 10 -237 147 -260 147 -7 0 -13 4 -13 9 0 8 -366 191 -560
278 -274 124 -598 258 -620 258 -8 0 -32 3 -52 7 -34 7 -38 5 -38 -14 0 -11
-5 -21 -12 -21 -6 0 0 -12 13 -27 42 -47 62 -84 50 -94 -6 -5 -9 -6 -6 -2 4 6
-88 43 -107 43 -4 0 -8 -9 -8 -20 0 -23 0 -23 -35 -10 -17 7 -24 7 -20 0 3 -6
-1 -10 -9 -10 -23 0 -19 -18 5 -25 11 -4 41 -20 65 -37 54 -36 163 -80 178
-71 6 3 8 2 3 -2 -4 -5 26 -28 65 -52 42 -24 65 -43 54 -43 -16 0 -13 -5 14
-25 19 -14 37 -25 41 -25 4 0 20 -5 35 -10 21 -8 24 -14 16 -22 -9 -9 3 -21
48 -50 33 -20 60 -40 60 -43 0 -4 -4 -4 -8 -1 -4 2 -14 0 -22 -5 -13 -8 -11
-13 10 -30 65 -53 80 -68 80 -83 0 -14 -7 -13 -47 7 -27 13 -91 34 -143 47
-52 12 -119 36 -147 52 -29 16 -58 26 -64 22 -7 -4 -9 -3 -6 2 3 6 -18 22 -46
38 -107 58 -235 148 -245 171 -10 22 -22 29 -44 27 -17 -3 -15 28 3 33 10 4
19 10 19 13 0 15 -32 52 -40 47 -4 -3 -7 3 -6 12 0 9 -24 36 -54 61 -30 24
-59 54 -65 65 -9 19 -85 61 -94 51 -3 -2 5 -18 18 -34 12 -17 19 -35 15 -41
-4 -7 -9 -7 -13 -2 -10 16 -170 73 -186 67 -22 -9 -19 -19 18 -46 46 -35 96
-60 107 -53 6 3 10 2 10 -4 0 -5 12 -14 28 -19 l27 -10 -30 -12 c-62 -24 -91
-24 -131 4 -38 26 -104 36 -104 16 0 -6 -31 -10 -72 -11 -40 0 -98 -6 -129
-12 -53 -11 -56 -13 -44 -32 6 -11 42 -68 80 -126 67 -102 70 -106 106 -107
22 -1 54 -13 75 -27 20 -14 43 -25 50 -25 7 0 19 -3 28 -6 10 -4 16 -1 16 9 0
13 6 14 33 6 50 -14 179 -70 212 -93 27 -18 25 -15 -13 32 -24 28 -40 52 -35
52 13 0 124 -69 168 -105 22 -17 78 -53 125 -80 47 -26 92 -51 100 -56 114
-65 140 -81 140 -85 0 -3 -13 -3 -30 1 -39 9 -38 2 6 -40 33 -32 46 -39 67
-36 4 0 7 -4 7 -10 0 -5 20 -19 45 -30 43 -19 95 -59 95 -73 0 -3 -18 3 -41
14 l-40 21 11 -20 c13 -25 5 -26 -55 -10 -23 6 -62 31 -91 58 -179 162 -365
304 -380 289 -2 -3 21 -25 53 -49 32 -24 63 -49 68 -55 6 -5 31 -27 58 -48 26
-21 57 -56 69 -79 11 -23 33 -57 49 -74 29 -33 69 -148 69 -197 0 -59 -33 -80
-93 -57 -19 7 -26 5 -36 -11 -9 -15 -9 -23 0 -34 8 -10 8 -14 0 -14 -20 0 -11
-46 13 -70 22 -20 23 -24 10 -37 -7 -8 -14 -25 -14 -38 0 -13 -6 -25 -12 -28
-18 -5 9 -37 31 -37 30 0 109 -58 201 -146 111 -107 116 -127 39 -167 -28 -14
-57 -23 -65 -20 -8 3 -24 24 -35 47 -10 22 -35 58 -54 78 -34 35 -50 72 -22
51 6 -6 28 -13 47 -17 l35 -6 -30 25 c-16 14 -43 32 -59 41 -27 15 -29 15 -22
-2 6 -17 6 -17 -12 -1 -10 9 -29 17 -43 17 -19 0 -29 11 -48 50 -24 47 -27 50
-64 50 -21 0 -47 5 -58 11 -17 9 -30 4 -75 -27 -30 -21 -55 -35 -57 -33 -20
34 -27 53 -27 73 0 17 -7 27 -22 32 -12 3 -29 13 -36 21 -13 12 -17 11 -33
-14 -11 -15 -19 -43 -19 -60 0 -31 -10 -39 -42 -34 -5 0 -8 -2 -8 -7 0 -14 67
-52 92 -52 14 0 31 -7 38 -15 7 -8 16 -12 21 -9 5 3 9 0 9 -5 0 -20 29 -11 35
10 5 14 12 18 23 13 10 -4 49 -10 87 -13 66 -7 68 -8 42 -19 -16 -7 -32 -12
-37 -12 -4 0 -10 -17 -13 -37 -3 -21 -9 -52 -12 -70 -7 -30 -5 -33 44 -57 27
-14 56 -36 62 -48 18 -34 98 -116 136 -139 41 -26 67 -71 51 -87 -14 -14 22
-57 55 -66 26 -7 78 -127 58 -134 -7 -2 -11 -35 -11 -90 0 -110 -11 -150 -67
-239 -43 -70 -46 -73 -82 -73 -22 0 -44 -6 -51 -15 -10 -12 -16 -13 -27 -3
-11 9 -15 7 -19 -10 -4 -11 -13 -23 -21 -26 -8 -3 -11 -11 -7 -17 4 -8 3 -9
-4 -5 -7 4 -22 0 -34 -8 -12 -9 -33 -16 -45 -16 -20 0 -23 -5 -23 -35 0 -48
-24 -46 -43 4 -14 35 -21 40 -59 46 -38 7 -44 5 -65 -21 -32 -40 -54 -90 -60
-133 -5 -34 -1 -41 78 -122 46 -47 101 -96 121 -109 20 -13 49 -45 65 -71 15
-26 32 -45 38 -41 5 3 7 2 3 -3 -4 -4 6 -30 22 -59 17 -31 31 -75 35 -111 4
-33 12 -66 18 -74 9 -11 9 -13 1 -8 -7 4 -18 0 -25 -9 -8 -9 -36 -32 -64 -50
-27 -19 -46 -34 -42 -34 4 0 -4 -12 -18 -27 -14 -15 -25 -31 -25 -36 0 -11
-63 -66 -76 -67 -13 0 -24 32 -24 69 0 31 -48 73 -77 68 -13 -2 -23 0 -23 5 0
6 -15 34 -32 63 -31 50 -37 54 -90 66 -56 13 -58 14 -58 46 0 26 -4 33 -19 33
-15 0 -19 -10 -24 -57 -2 -32 -11 -91 -18 -131 -12 -64 -11 -77 2 -100 9 -17
25 -28 41 -30 26 -3 27 -4 13 -41 -11 -31 -10 -44 1 -77 8 -21 14 -40 14 -42
0 -2 5 0 12 4 6 4 8 3 5 -3 -10 -16 15 -32 56 -35 20 -1 34 -4 32 -7 -9 -8 28
-41 45 -41 9 0 25 -9 35 -20 10 -12 25 -18 32 -15 8 2 12 1 8 -4 -3 -5 8 -20
24 -33 41 -33 50 -56 52 -139 1 -41 7 -81 14 -89 14 -17 35 -76 35 -96 0 -19
-45 -18 -78 3 -50 30 -122 107 -122 128 0 12 -11 32 -24 45 -14 12 -28 35 -31
51 -4 16 -10 29 -14 29 -4 0 -7 8 -8 18 -6 55 -19 91 -44 120 -16 18 -29 37
-29 42 0 5 -18 30 -40 55 -22 25 -40 39 -40 31 0 -8 -4 -17 -8 -20 -8 -5 -8
-7 -22 109 -15 127 -22 165 -29 165 -8 0 -8 -1 -19 90 -5 40 -20 88 -39 125
-16 33 -36 84 -43 113 -7 30 -19 56 -26 59 -8 3 -12 9 -9 13 3 4 -2 13 -10 20
-10 8 -15 9 -15 2 0 -6 -14 -27 -31 -47 -35 -39 -64 -44 -106 -17 -25 15 -28
23 -29 78 -1 42 -7 71 -20 92 -59 94 -81 121 -97 122 -29 0 -92 73 -128 147
-48 99 -109 147 -101 80 3 -31 2 -33 -29 -35 -18 -2 -36 -6 -39 -11 -3 -4 -18
-10 -35 -14 -64 -12 -83 -25 -90 -59 -15 -67 -37 -108 -71 -129 -30 -18 -96
-119 -79 -119 3 0 1 -6 -4 -12 -50 -62 -68 -86 -77 -103 -6 -11 -28 -29 -50
-40 -21 -11 -41 -21 -43 -22 -2 -1 8 -48 23 -103 23 -86 25 -106 15 -134 -9
-24 -9 -45 0 -84 14 -68 14 -72 -5 -72 -10 0 -14 -5 -10 -16 3 -8 2 -12 -4 -9
-6 3 -10 -1 -10 -9 0 -8 7 -19 16 -24 14 -8 12 -10 -10 -16 -15 -4 -36 -23
-51 -46 -14 -22 -29 -40 -33 -40 -4 0 -24 17 -45 38 -26 27 -46 65 -72 136
-20 55 -51 125 -70 155 -18 31 -40 81 -49 112 -9 33 -35 83 -61 118 -25 34
-50 81 -57 106 -7 24 -16 41 -21 38 -6 -3 -7 -1 -3 5 4 7 -8 47 -27 89 -19 43
-42 108 -52 145 -16 61 -19 67 -36 57 -11 -5 -18 -13 -15 -17 2 -4 -16 -8 -42
-10 -42 -3 -48 0 -93 44 -32 32 -45 51 -39 59 5 6 6 15 2 20 -12 17 -85 71
-120 89 -18 9 -38 28 -44 40 -18 41 -64 68 -101 61 -18 -4 -78 -9 -133 -12
-87 -4 -116 -1 -206 21 -57 14 -116 26 -130 26 -21 0 -32 10 -57 55 -17 30
-38 55 -47 55 -9 0 -12 -5 -8 -12 5 -7 3 -8 -5 -3 -8 4 -24 -3 -41 -20 -34
-33 -64 -29 -135 16 -25 16 -54 31 -63 32 -34 6 -60 28 -92 77 -18 27 -36 50
-41 50 -5 0 -9 6 -9 13 0 31 -69 64 -104 51 -41 -16 41 -166 112 -203 12 -7
22 -21 22 -34 1 -20 41 -77 55 -77 3 0 5 11 5 25 0 18 5 25 19 25 28 0 39 -20
42 -75 5 -69 18 -81 93 -84 56 -2 64 0 74 21 7 13 28 42 47 66 l34 42 26 -54
c27 -58 51 -74 117 -78 20 -2 34 -6 31 -10 -6 -11 11 -10 25 2 9 7 9 7 2 -2
-12 -14 54 -88 78 -88 9 0 12 -6 9 -17 -18 -59 -35 -93 -60 -122 -15 -18 -27
-37 -27 -42 0 -5 -7 -9 -16 -9 -13 0 -15 -8 -12 -42 3 -24 8 -51 12 -60 6 -13
4 -18 -7 -18 -18 0 -27 -21 -27 -61 0 -24 -4 -29 -24 -29 -27 0 -46 -19 -49
-48 0 -10 -7 -19 -14 -19 -7 0 -29 -7 -50 -15 -21 -9 -51 -19 -68 -24 -23 -7
-31 -16 -33 -38 -4 -30 -34 -48 -104 -61 -20 -4 -46 -18 -59 -31 -12 -13 -33
-24 -47 -24 -13 0 -37 -11 -54 -25 -21 -18 -41 -25 -69 -25 -39 0 -69 -17 -69
-39 0 -6 -21 -11 -50 -11 -45 0 -51 3 -65 31 -9 17 -17 40 -18 52 -2 12 -15
41 -30 65 -26 40 -29 42 -77 42 l-50 0 0 45 c0 46 -19 87 -68 154 -15 20 -29
38 -32 41 -3 3 -6 16 -8 30 -1 14 -20 43 -42 65 -50 52 -110 152 -110 185 0
28 -18 58 -63 105 -28 29 -55 80 -62 116 -5 27 -25 59 -35 59 -6 0 -10 5 -10
10 0 26 -102 160 -122 160 -14 0 -9 -38 8 -54 8 -9 13 -16 10 -16 -4 0 4 -17
17 -37 13 -21 29 -52 36 -69 7 -17 30 -48 52 -70 31 -30 39 -45 39 -74 0 -29
8 -44 45 -80 25 -24 49 -58 54 -74 5 -17 22 -78 37 -134 23 -83 34 -109 59
-131 16 -15 31 -32 32 -37 8 -36 59 -143 77 -162 24 -27 70 -54 80 -47 3 3 4
2 1 -2 -3 -4 20 -32 51 -64 l56 -56 -22 -43 c-21 -41 -21 -78 0 -65 6 4 9 1 8
-7 -2 -7 2 -12 8 -11 13 2 7 -34 -7 -53 -5 -6 11 -29 42 -60 29 -28 53 -45 57
-39 9 13 27 18 85 23 26 2 47 7 47 11 0 4 12 8 26 9 15 1 32 7 39 12 7 6 32
11 56 11 24 1 54 8 66 15 40 25 43 19 43 -97 0 -161 -53 -355 -135 -496 -16
-26 -29 -50 -29 -53 -1 -9 -140 -144 -186 -180 -62 -49 -91 -82 -141 -159 -39
-61 -109 -121 -141 -121 -6 0 -8 -11 -6 -24 3 -15 0 -27 -8 -30 -25 -10 -74
-114 -81 -175 -5 -43 -3 -48 21 -59 29 -13 32 -26 11 -62 -8 -14 -14 -36 -15
-50 0 -36 57 -183 69 -176 3 2 5 -75 3 -172 -3 -161 -5 -179 -27 -221 -27 -53
-62 -88 -126 -124 -25 -15 -85 -66 -133 -114 -85 -84 -87 -89 -81 -123 13 -70
16 -189 6 -209 -8 -14 -8 -22 0 -26 16 -10 -16 -41 -103 -98 -69 -45 -97 -77
-68 -77 17 0 11 -54 -12 -111 -22 -55 -82 -129 -105 -129 -6 0 -21 -21 -33
-47 -26 -60 -181 -215 -233 -234 -20 -7 -37 -15 -37 -19 0 -3 -12 -6 -26 -7
-15 0 -29 -5 -33 -10 -14 -21 -107 -41 -95 -21 11 17 -91 3 -171 -24 -75 -24
-84 -26 -82 -16 1 6 -11 18 -28 27 -24 14 -31 25 -33 57 -1 21 -8 49 -14 62
-9 17 -9 25 0 34 16 16 15 62 -3 105 -9 20 -24 70 -34 111 -11 42 -28 82 -40
93 -36 34 -53 79 -56 153 -9 212 -18 302 -32 318 -19 21 -53 140 -53 183 0 17
-11 47 -25 67 -22 33 -25 48 -25 125 0 77 17 195 36 249 4 11 23 37 44 59 20
22 46 64 58 94 25 61 29 152 9 169 -7 6 -24 34 -37 62 -20 42 -22 55 -12 71
17 27 16 37 -18 107 -17 35 -30 76 -30 90 0 53 -146 252 -173 235 -6 -3 -7 -1
-3 5 3 6 -9 36 -29 66 -33 52 -45 96 -27 96 5 0 24 30 42 67 33 69 49 157 36
206 -9 36 -54 87 -77 87 -11 0 -18 4 -15 8 3 5 -16 3 -41 -3 -26 -7 -49 -17
-50 -22 -2 -6 -12 -9 -21 -8 -61 12 -72 17 -67 25 8 13 -11 49 -48 88 -29 30
-36 32 -94 32 -53 0 -75 -6 -136 -36 -39 -20 -87 -49 -106 -65 -31 -25 -36
-27 -55 -13 -11 8 -28 14 -38 14 -9 0 -33 8 -52 17 -39 18 -70 12 -171 -34
-64 -29 -127 -30 -168 -1 -18 11 -63 52 -100 90 -42 43 -74 68 -83 64 -8 -3
-14 -2 -14 2 0 4 -14 15 -30 24 -17 9 -30 24 -30 33 0 9 -3 14 -7 12 -5 -3 -8
18 -8 46 0 58 -25 104 -60 109 -14 2 -21 12 -23 33 -5 38 -27 63 -74 82 -21 8
-35 19 -32 24 3 5 1 9 -4 9 -5 0 -12 31 -14 69 -3 45 -13 82 -26 105 -12 21
-17 38 -11 41 17 11 50 85 43 97 -5 7 -3 8 5 3 9 -5 12 0 10 16 -2 13 2 38 10
56 9 22 12 70 9 161 -2 107 -6 133 -20 149 -24 26 -23 69 2 100 11 14 20 34
20 45 0 30 28 76 49 83 32 10 71 63 71 96 0 34 25 89 41 89 6 0 8 4 5 9 -3 5
0 8 8 7 7 0 28 19 47 44 21 27 44 46 59 48 52 7 150 124 150 179 0 19 -4 32
-9 28 -5 -3 -13 0 -17 6 -4 8 -3 9 4 5 13 -8 42 54 42 88 0 27 51 77 107 105
31 15 51 36 76 78 30 52 36 58 63 55 16 -2 35 -9 41 -14 7 -6 23 -8 36 -6 13
2 29 -1 35 -9 18 -19 49 -16 65 7 8 11 31 26 53 33 41 14 67 49 60 79 -2 10
-1 17 3 16 24 -3 41 4 35 14 -4 6 -3 8 3 5 6 -4 25 -2 44 4 19 6 72 15 119 20
47 4 104 11 126 15 26 4 44 2 48 -5 9 -14 73 -15 81 -1 3 6 22 10 41 10 27 0
34 -4 34 -20 0 -23 4 -24 31 -10 15 9 19 7 19 -6 0 -10 -7 -26 -17 -36 -15
-17 -15 -19 0 -36 19 -21 22 -74 6 -104 -12 -23 -4 -68 13 -68 6 0 19 -6 27
-13 9 -8 43 -20 76 -27 54 -12 126 -38 165 -59 8 -4 19 -21 23 -38 13 -43 40
-57 84 -42 31 10 40 9 76 -11 l40 -23 18 22 c15 18 16 27 8 44 -10 18 -8 24
15 44 15 12 38 26 52 29 27 7 98 -11 124 -31 23 -17 69 -35 89 -35 10 0 24 -7
31 -15 7 -8 28 -15 48 -15 19 0 64 -12 100 -26 l64 -26 27 26 c22 21 37 26 79
26 35 0 54 -5 58 -13 3 -8 10 -14 17 -14 7 -1 27 -7 44 -14 30 -12 34 -11 62
15 27 26 30 35 35 115 2 47 5 91 6 96 2 21 -13 71 -28 88 -8 9 -11 17 -6 17
12 1 -27 30 -39 30 -5 0 -7 -9 -4 -20 3 -11 0 -23 -5 -27 -6 -3 -8 -2 -5 4 3
5 0 10 -8 10 -10 0 -11 -5 -5 -18 8 -13 5 -18 -15 -23 -14 -4 -25 -10 -25 -15
0 -13 -37 -2 -51 15 -8 10 -8 14 0 14 18 0 13 17 -11 40 -23 21 -58 27 -58 10
0 -7 -19 -10 -44 -9 -25 2 -43 6 -40 11 5 7 -10 12 -29 9 -4 0 -6 5 -5 11 2 9
-13 14 -42 16 -42 3 -48 7 -80 54 -19 28 -39 57 -44 63 -6 8 -2 23 13 43 13
19 17 33 11 37 -5 3 -10 3 -10 -2 0 -4 -5 0 -11 10 -8 13 -7 22 1 32 6 8 8 20
4 26 -4 7 -3 9 3 6 6 -4 13 0 17 8 3 9 19 15 41 15 28 0 35 4 35 20 0 34 -49
25 -93 -16 -38 -36 -67 -40 -67 -8 0 14 -8 16 -45 11 -56 -6 -63 -12 -42 -35
23 -26 21 -32 -10 -32 l-26 0 22 -24 c20 -21 20 -24 5 -30 -15 -6 -14 -10 9
-34 15 -16 27 -38 27 -51 0 -20 -4 -22 -22 -16 -13 4 -39 9 -59 12 -35 5 -36
4 -32 -21 3 -14 9 -26 14 -26 5 0 6 -6 3 -14 -4 -11 -13 -12 -42 -4 -20 5 -42
10 -49 10 -7 1 -18 15 -24 32 -7 17 -30 58 -51 90 -21 33 -38 72 -38 88 0 19
-4 26 -14 22 -8 -3 -17 -1 -21 5 -10 17 -52 13 -59 -5 -10 -25 -7 -31 13 -37
29 -7 31 -48 4 -74 -13 -12 -23 -31 -23 -43 0 -13 -7 -20 -20 -20 -17 0 -20 7
-20 53 0 55 -28 117 -53 117 -7 0 -28 16 -47 35 -24 25 -43 35 -65 35 -52 0
-145 79 -170 144 -13 35 -23 44 -57 54 -35 11 -43 11 -58 -3 -9 -8 -20 -12
-23 -8 -4 3 -20 -6 -35 -20 -27 -26 -31 -27 -79 -16 -40 9 -55 9 -79 -2 -25
-12 -29 -21 -32 -59 -4 -51 -37 -95 -81 -105 -20 -5 -35 -24 -65 -86 -22 -45
-36 -85 -32 -95 4 -11 0 -18 -14 -21 -17 -5 -18 -8 -8 -22 12 -14 11 -15 -5
-2 -16 12 -21 11 -45 -12 -24 -23 -37 -27 -89 -27 -58 0 -94 -16 -75 -34 4 -4
3 -7 -3 -5 -5 1 -18 -1 -27 -5 -26 -12 -46 -1 -66 34 -14 26 -21 30 -42 25
-14 -4 -40 -9 -57 -12 l-33 -5 0 46 c0 25 -4 46 -10 46 -11 0 -14 83 -3 94 28
28 43 176 20 204 -7 9 -6 17 4 28 13 13 20 13 58 -1 29 -10 80 -15 152 -15
129 0 127 -2 127 115 0 71 -3 85 -27 120 -18 28 -40 45 -69 55 -36 12 -42 19
-42 42 0 23 6 29 39 39 29 9 47 9 71 1 33 -12 34 -10 12 46 -3 10 1 10 21 1
36 -16 139 21 156 57 6 13 26 32 45 41 20 9 32 21 29 26 -4 6 -1 7 6 3 18 -11
44 16 71 73 22 47 25 50 81 62 33 7 59 17 59 22 0 5 16 7 35 5 23 -3 32 -1 25
6 -6 6 -10 22 -10 37 0 15 -7 32 -15 39 -12 10 -15 29 -13 73 3 58 4 60 31 61
16 1 34 11 43 24 22 32 34 27 34 -13 0 -19 5 -35 10 -35 6 0 10 -7 10 -15 0
-8 -6 -15 -13 -15 -8 0 -18 -10 -24 -22 -8 -18 -4 -26 20 -49 15 -15 28 -30
27 -34 0 -3 11 -16 25 -27 l27 -21 30 23 30 22 30 -22 c19 -14 33 -18 41 -12
21 15 133 52 161 52 14 0 26 -4 26 -10 0 -5 9 -10 20 -10 11 0 20 6 20 14 0 8
9 18 21 21 15 5 18 11 13 23 -14 31 -16 122 -4 137 18 22 25 19 46 -20 10 -19
21 -35 25 -35 3 0 6 20 6 45 0 27 -4 45 -11 45 -15 0 -46 36 -46 53 0 16 0 16
117 25 50 4 95 10 99 15 4 4 -5 21 -21 37 -36 37 -77 39 -172 9 l-65 -22 -37
21 c-24 14 -38 30 -42 49 -3 15 -11 39 -18 51 -18 35 -6 67 46 123 51 55 50
66 -12 76 -27 4 -36 3 -31 -5 5 -8 2 -10 -8 -6 -21 8 -44 -40 -28 -59 13 -15
-12 -42 -75 -86 -26 -18 -33 -29 -33 -56 0 -41 35 -80 81 -90 30 -7 31 -9 25
-43 -3 -23 -15 -44 -31 -55 -20 -15 -25 -27 -25 -59 0 -22 -5 -58 -12 -79 -9
-33 -16 -39 -38 -39 -19 0 -30 -7 -38 -25 -11 -23 -17 -26 -59 -24 -60 2 -103
17 -103 35 0 9 12 14 35 14 l34 0 -27 44 c-15 24 -31 41 -36 38 -5 -3 -6 0 -2
6 6 10 -38 112 -49 112 -2 0 -26 -13 -52 -30 -51 -33 -69 -36 -106 -19 -21 10
-26 22 -37 100 -7 49 -17 89 -21 89 -23 0 36 69 72 86 44 19 113 99 102 118
-3 6 -3 8 2 4 4 -4 30 25 57 65 98 143 189 217 267 217 13 0 26 10 33 25 10
22 18 25 58 25 26 0 64 -7 84 -15 20 -9 42 -13 48 -9 6 4 8 3 5 -3 -4 -6 2
-13 14 -16 13 -3 19 -12 17 -24 -2 -12 4 -19 20 -21 12 -2 22 1 22 6 0 5 36
-2 81 -14 45 -13 85 -22 89 -19 5 3 10 2 12 -3 5 -13 130 -64 168 -69 42 -6
48 -11 59 -51 9 -31 8 -32 -30 -43 -31 -10 -51 -9 -97 1 -31 7 -65 14 -74 15
-10 1 -21 4 -24 8 -4 4 -14 7 -23 7 -10 0 -7 -6 11 -17 14 -9 37 -39 49 -66
17 -36 34 -54 62 -69 21 -10 41 -17 44 -14 3 3 -2 8 -11 12 -9 3 -21 14 -26
23 -11 22 15 25 89 10 61 -13 82 -2 51 26 -26 23 -25 37 3 63 24 23 65 26 79
7 4 -5 8 0 8 12 0 12 -8 24 -17 27 -10 3 -25 24 -34 45 -16 37 -16 40 1 44 10
3 22 1 27 -2 10 -10 95 -35 106 -33 5 2 6 -2 2 -8 -3 -5 -17 -10 -31 -10 -30
0 -33 -34 -4 -50 28 -15 62 -3 56 18 -4 12 11 26 51 50 56 32 93 41 93 22 0
-5 9 -10 20 -10 11 0 20 5 20 10 0 6 15 10 34 10 29 0 34 4 43 33 9 29 12 32
49 30 l39 -1 -37 15 c-36 15 -53 43 -25 43 16 -1 123 -25 167 -39 l35 -10 -40
37 c-24 23 -39 45 -37 56 2 10 -9 31 -24 47 -31 32 -28 34 31 18 63 -16 95
-31 95 -43 0 -6 26 -27 58 -48 31 -20 83 -54 116 -77 32 -23 64 -41 70 -41 6
1 -1 7 -16 16 -25 13 -63 67 -56 78 2 2 -10 15 -26 27 -20 16 -31 19 -34 11
-5 -16 -42 4 -42 23 0 8 -4 15 -9 15 -5 0 -22 5 -38 11 -20 8 -24 12 -14 19 8
4 19 4 25 -1 73 -59 74 -59 85 -45 6 7 9 15 7 17 -3 2 28 3 67 2 l72 -2 -40
20 c-22 12 -46 21 -52 22 -7 0 -13 3 -13 7 0 3 -17 15 -37 25 l-38 20 55 6
c30 3 48 6 39 7 -20 2 -48 32 -30 32 6 0 11 7 11 15 0 12 14 15 70 15 40 0 70
4 70 10 0 6 7 10 16 10 12 0 10 6 -10 21 -33 26 -36 54 -3 45 22 -7 93 -18
227 -35 88 -12 173 -33 215 -55 17 -9 38 -16 48 -16 10 0 15 -5 12 -11 -4 -5
-2 -23 5 -38 12 -29 41 -38 142 -44 14 -1 24 -5 22 -8 -2 -4 7 -9 21 -11 14
-3 22 -1 18 4 -3 7 28 8 83 4 49 -3 123 -8 164 -11 l75 -5 -35 19 -35 20 69 1
c70 0 184 -29 346 -90 103 -38 124 -44 116 -32 -3 5 18 4 54 -3 47 -10 62 -10
70 0 10 12 45 14 56 2 13 -13 33 -7 28 8 -3 8 -25 20 -48 26 -22 6 -46 15 -53
21 -7 5 -17 7 -24 3 -8 -6 -8 -2 0 14 9 16 16 19 29 12 9 -4 116 -14 237 -20
139 -8 252 -20 306 -32 52 -11 124 -19 180 -19 99 0 157 -13 299 -66 63 -23
96 -28 208 -33 104 -5 131 -3 127 7 -19 46 -19 45 8 39 14 -4 70 -11 124 -17
54 -5 112 -13 128 -16 17 -4 28 -4 25 -1 -4 5 -106 33 -240 68 -25 7 -110 29
-190 50 -224 59 -451 115 -605 150 -77 17 -178 40 -225 50 -47 11 -218 46
-380 79 -918 184 -1942 308 -2985 360 -212 11 -1025 31 -1145 28 -36 -1 -220
-5 -410 -9z m135 -188 l30 -13 -25 -13 c-14 -8 -45 -14 -70 -15 l-45 0 33 -20
c18 -11 43 -20 56 -20 14 0 26 -5 28 -10 2 -7 15 -7 38 0 52 15 100 13 100 -5
0 -16 -58 -35 -110 -35 -44 0 -94 -30 -114 -68 -11 -22 -12 -32 -3 -41 12 -12
7 -14 -41 -11 -31 1 -32 1 -21 -27 5 -15 7 -25 4 -21 -10 9 -42 -25 -37 -39 2
-7 8 -10 13 -7 5 3 6 -2 3 -10 -4 -10 -18 -16 -36 -16 -18 0 -27 -4 -23 -10
12 -19 -17 -40 -55 -40 -34 0 -38 -2 -33 -21 5 -19 3 -21 -27 -14 -25 5 -31 4
-27 -6 2 -8 9 -13 15 -12 7 2 9 -4 5 -14 -5 -13 -2 -15 11 -10 9 4 15 3 12 -2
-3 -5 0 -14 8 -20 7 -6 11 -22 8 -36 -3 -18 -11 -25 -29 -25 -13 0 -65 -16
-116 -36 -101 -39 -195 -64 -242 -64 -35 0 -140 -61 -128 -75 4 -4 3 -5 -3 -2
-16 9 -127 -17 -206 -48 -54 -21 -73 -35 -105 -77 -30 -41 -50 -56 -100 -75
-52 -21 -63 -29 -63 -48 0 -15 -12 -32 -32 -46 -18 -12 -44 -32 -58 -44 -14
-13 -38 -25 -53 -28 -23 -4 -31 0 -39 19 -9 19 -19 24 -48 24 -50 0 -67 20
-50 59 8 21 9 35 1 49 -20 37 -13 86 14 112 15 14 25 35 25 51 0 19 6 30 20
34 11 3 20 11 20 16 0 22 64 73 118 95 31 13 56 29 54 35 -1 6 2 8 7 5 5 -3
13 0 19 7 8 9 1 11 -32 9 -30 -3 -46 1 -56 13 -13 15 -11 20 15 42 21 17 39
23 63 20 22 -2 32 1 32 11 0 8 -9 12 -22 10 -15 -2 -24 3 -26 14 -2 12 10 24
42 40 25 12 46 25 46 30 0 4 11 24 25 44 14 21 24 43 21 50 -3 7 2 18 9 24 27
23 4 30 -96 30 l-99 0 0 30 c0 23 5 31 23 34 12 3 51 12 87 20 36 8 92 20 125
26 71 13 128 30 122 36 -2 2 -36 -2 -76 -11 -40 -8 -107 -15 -150 -15 -65 0
-89 -5 -161 -35 -46 -19 -93 -35 -104 -35 -10 0 -24 -7 -31 -17 -14 -18 -54
-19 -215 -6 -68 6 -89 10 -72 16 12 5 20 12 18 15 -2 4 12 6 32 5 21 -2 54 3
75 9 29 9 43 9 57 1 18 -12 63 -7 56 6 -2 3 16 4 40 2 49 -3 107 15 97 32 -3
5 -2 7 4 4 5 -3 20 4 33 16 16 15 33 22 50 19 14 -2 36 1 50 7 24 9 24 10 -9
10 -29 1 -33 4 -28 22 4 16 2 19 -11 14 -9 -4 -36 -14 -59 -22 -24 -8 -43 -21
-43 -29 0 -8 -2 -14 -4 -14 -2 0 -39 -9 -82 -20 -44 -11 -92 -20 -109 -19 -30
0 -30 0 -7 12 12 7 19 17 15 22 -4 4 -2 5 5 1 8 -5 21 -1 30 8 10 8 51 29 92
46 60 24 88 30 140 29 44 -1 76 4 98 15 47 24 171 31 385 20 108 -5 126 -8
116 -20 -15 -18 7 -19 48 -3 15 7 60 15 98 20 39 4 85 11 103 15 21 4 32 2 32
-5 0 -6 9 -11 20 -11 11 0 20 -5 20 -11 0 -6 8 -2 18 10 30 37 102 50 267 48
96 -2 161 -7 180 -16z m875 -118 c0 -9 -19 -13 -57 -14 -54 -1 -56 -1 -25 -10
18 -5 30 -14 27 -19 -4 -6 0 -10 8 -10 8 0 21 -7 28 -16 11 -14 10 -16 -16
-14 -57 4 -65 1 -65 -25 0 -31 -20 -32 -89 -6 -47 18 -121 77 -121 98 0 5 16
14 35 20 27 9 37 8 46 -3 15 -18 29 -18 29 1 0 11 12 15 50 15 28 0 50 4 50 9
0 16 44 17 72 1 16 -8 28 -21 28 -27z m-2780 -113 c0 -5 12 -10 28 -10 l27 -1
-28 -24 -28 -25 90 0 c83 0 91 -2 91 -19 0 -11 -13 -29 -29 -40 -26 -19 -43
-21 -168 -21 -97 1 -145 5 -162 14 -25 14 -24 14 35 44 32 17 53 31 45 32 -10
0 -5 10 14 30 28 29 85 43 85 20z m3955 -30 c0 -8 -17 -24 -38 -35 -20 -12
-34 -25 -30 -29 4 -4 0 -4 -9 -1 -11 5 -19 -2 -25 -22 -8 -22 -5 -37 11 -70
11 -24 25 -43 31 -43 6 0 44 -17 85 -37 l75 -38 -70 -3 c-48 -2 -81 2 -105 13
-20 9 -43 17 -51 18 -26 4 -70 37 -64 47 4 6 -1 10 -9 10 -11 0 -16 9 -16 30
0 19 -5 30 -14 30 -8 0 -18 5 -22 12 -5 7 -3 8 6 3 10 -6 12 -4 7 9 -4 10 -3
15 3 11 6 -3 10 1 10 9 0 9 -4 16 -10 16 -5 0 -10 8 -10 18 0 23 39 42 84 42
19 0 39 7 46 15 18 21 115 17 115 -5z m-4395 -9 l-24 -19 29 -4 c29 -4 29 -5
-20 -28 -38 -18 -76 -25 -156 -31 -59 -4 -115 -11 -125 -16 -11 -5 -25 -8 -31
-7 -7 1 -21 2 -30 3 -29 2 1 23 54 37 l48 13 -60 1 c-59 2 -59 2 -20 11 22 4
61 10 88 13 26 3 60 11 76 19 38 19 47 10 19 -20 -29 -31 -17 -29 77 12 90 39
112 44 75 16z m290 -151 c-30 -16 -50 -29 -44 -30 29 -1 171 34 189 46 25 18
95 19 95 1 0 -7 -5 -18 -12 -25 -6 -6 -12 -25 -12 -42 -1 -29 2 -31 26 -28 23
4 25 2 17 -18 -6 -18 -4 -24 11 -29 25 -8 25 -30 0 -62 -11 -14 -17 -29 -14
-34 3 -5 2 -8 -3 -7 -4 1 -19 -4 -33 -12 -14 -7 -27 -12 -30 -11 -2 1 -6 -2
-8 -8 -2 -6 10 -11 27 -11 26 0 31 -4 31 -25 0 -20 5 -25 28 -26 25 0 24 -2
-11 -14 -21 -8 -65 -30 -97 -50 -31 -19 -63 -35 -69 -35 -6 0 -14 14 -17 30
-4 17 -8 30 -11 30 -2 0 -22 -9 -43 -20 -40 -20 -49 -33 -30 -45 16 -10 12
-53 -10 -95 -11 -22 -23 -40 -27 -40 -4 0 -20 12 -35 27 l-28 27 0 -25 c0 -13
-6 -32 -14 -41 -11 -15 -17 -16 -62 -4 -27 8 -61 18 -75 24 -15 6 -31 8 -35 4
-5 -4 -6 -3 -2 2 4 5 3 15 -3 23 -9 9 -8 13 0 13 13 0 15 46 2 55 -5 3 -12 1
-16 -5 -3 -5 -35 -10 -71 -10 -54 0 -64 3 -64 18 0 33 63 62 135 62 50 0 69 4
84 19 10 10 45 28 77 40 78 29 78 29 85 27 11 -2 39 27 39 41 0 7 -16 23 -36
35 l-35 21 30 18 c20 12 29 24 25 34 -5 11 -10 12 -26 4 -18 -10 -53 -9 -259
4 -30 2 -35 5 -31 21 3 10 13 21 23 23 11 3 17 9 14 13 -3 5 4 11 15 15 11 4
17 11 14 17 -4 6 -2 8 4 4 6 -3 26 0 44 8 18 8 68 22 110 32 43 9 75 21 72 25
-3 5 1 7 8 4 7 -3 27 -1 43 4 62 19 69 9 15 -19z m1655 -320 c17 -19 41 -29
32 -12 -3 4 16 6 41 4 82 -5 96 -4 140 3 33 6 42 5 42 -7 0 -8 -5 -19 -10 -24
-8 -8 -7 -19 2 -39 11 -25 10 -29 -20 -56 -18 -16 -39 -29 -48 -29 -8 0 -13
-4 -10 -9 3 -5 0 -9 -7 -8 -29 1 -48 -4 -44 -11 3 -4 -17 -8 -44 -10 -42 -3
-58 2 -116 37 -51 30 -63 42 -50 47 25 9 21 21 -9 28 -33 9 -26 17 15 18 42 1
39 16 -4 24 -41 7 -42 10 -13 41 27 29 78 31 103 3z m614 -500 c20 0 20 0 0
-35 l-21 -35 46 0 47 0 -17 -32 c-10 -18 -24 -38 -33 -45 -14 -11 -14 -12 4
-13 12 0 30 -15 43 -35 12 -19 29 -35 36 -35 8 0 17 -14 21 -30 5 -24 16 -34
46 -47 32 -12 39 -20 39 -42 0 -15 -5 -32 -12 -39 -9 -9 -9 -18 0 -37 10 -21
9 -26 -8 -35 -10 -5 -34 -10 -53 -10 -19 0 -54 -7 -77 -15 -28 -10 -47 -12
-54 -6 -7 6 -17 6 -26 1 -8 -6 -25 -10 -36 -10 -12 0 -27 -6 -33 -14 -11 -13
-64 -10 -59 4 2 4 23 24 46 44 34 28 39 36 24 36 -19 0 -38 36 -22 42 5 2 5
22 1 46 l-8 42 38 0 c43 0 48 10 27 55 -7 16 -19 25 -35 25 -20 0 -23 5 -23
43 0 23 -7 52 -15 64 -13 18 -13 26 -1 62 28 79 33 83 66 66 16 -8 38 -15 49
-15z m-119 -205 c21 -22 22 -29 12 -45 -7 -11 -12 -29 -12 -39 0 -70 -91 -120
-200 -112 -12 1 -12 3 -2 10 8 4 16 27 19 51 4 25 2 41 -3 37 -5 -3 -9 8 -9
24 0 24 9 34 60 64 71 42 103 44 135 10z m7390 -625 c83 -42 189 -79 192 -68
2 5 25 -7 52 -28 l49 -37 -22 -16 c-19 -15 -21 -21 -11 -45 6 -16 8 -31 6 -34
-3 -2 -28 3 -55 12 -67 22 -75 21 -57 -6 22 -30 20 -38 -7 -38 -13 0 -34 11
-47 25 -12 13 -28 22 -34 18 -6 -3 -8 -3 -4 2 4 4 -2 19 -12 33 -25 30 -26 52
-3 52 12 0 4 14 -28 48 -48 49 -95 112 -84 112 3 0 33 -14 65 -30z m314 -346
c95 -73 100 -78 97 -110 -1 -20 2 -34 9 -34 6 0 9 -3 6 -8 -6 -10 39 -83 47
-77 4 3 5 2 2 -1 -8 -11 35 -83 48 -80 6 1 9 1 5 -1 -4 -3 3 -19 16 -36 13
-18 26 -37 30 -44 10 -18 -46 -43 -98 -43 -42 0 -45 -2 -56 -35 l-12 -36 -34
20 c-34 20 -34 20 -34 0 0 -17 -3 -18 -21 -9 -31 17 -53 6 -39 -20 6 -11 8
-25 5 -30 -9 -15 -75 39 -75 62 0 14 -5 18 -16 14 -9 -3 -30 -6 -47 -7 l-32 0
41 -21 c36 -18 45 -30 67 -84 22 -56 23 -65 10 -76 -22 -18 -64 9 -77 50 -6
18 -25 41 -43 51 -17 11 -34 24 -38 30 -3 6 -10 9 -14 7 -4 -3 -7 6 -7 19 0
13 3 22 7 19 4 -2 14 -1 22 2 17 6 28 82 12 88 -5 2 -2 5 8 5 12 1 17 9 17 29
0 26 5 30 50 40 34 8 58 8 76 2 14 -6 27 -10 30 -10 2 0 -5 23 -17 51 -11 29
-18 54 -15 56 3 3 18 1 35 -5 28 -10 30 -9 40 20 14 39 14 68 0 68 -5 0 -8 4
-4 9 3 5 0 15 -7 23 -7 7 -14 20 -16 28 -1 8 -17 26 -34 40 -59 46 -76 65 -83
88 -12 43 35 24 139 -54z m-12172 -1236 c9 -1 15 -4 13 -7 -11 -10 20 -31 45
-31 15 0 35 -9 45 -20 10 -11 22 -17 28 -13 5 3 7 1 4 -4 -4 -6 9 -26 28 -44
19 -19 35 -40 35 -46 0 -7 11 -13 25 -13 36 0 75 -21 75 -41 0 -15 -13 -18
-92 -21 -51 -3 -102 -8 -113 -13 -18 -7 -18 -5 4 18 28 30 19 51 -19 45 -30
-5 -50 16 -50 52 0 11 -6 20 -13 20 -7 0 -28 10 -47 23 -19 13 -50 24 -69 25
-44 3 -66 19 -50 38 19 23 -25 17 -46 -6 -25 -27 -72 -50 -104 -50 l-26 0 30
19 c17 10 43 33 58 50 l28 32 97 -5 c53 -2 105 -6 114 -8z m503 -248 c10 -11
26 -20 37 -20 10 0 18 -5 18 -11 0 -13 25 -39 38 -39 5 0 15 -7 22 -15 10 -12
10 -18 0 -30 -11 -13 -15 -13 -33 0 -27 19 -51 19 -67 0 -7 -8 -19 -15 -26
-15 -8 0 -14 7 -14 15 0 25 -17 17 -30 -16 -11 -25 -15 -28 -22 -15 -10 18
-104 21 -126 3 -10 -8 -16 -7 -23 4 -18 29 -10 39 36 39 25 0 45 5 45 10 0 13
-22 53 -34 61 -19 15 8 29 55 29 27 0 49 5 49 10 0 18 56 11 75 -10z m11556
-110 c10 -6 19 -17 19 -24 0 -7 11 -23 25 -36 13 -12 23 -30 21 -39 -14 -64
-20 -82 -32 -92 -9 -7 -14 -31 -14 -62 l0 -51 -36 35 c-35 33 -43 46 -59 98
-5 18 -4 22 6 16 9 -6 10 -3 5 11 -4 10 -10 49 -13 87 l-6 67 32 0 c18 0 41
-5 52 -10z m-11733 -409 c-2 -5 7 -18 19 -28 20 -18 21 -23 10 -46 -6 -15 -19
-27 -28 -27 -12 0 -14 -8 -11 -30 2 -16 -1 -43 -6 -60 -11 -31 1 -90 18 -90
14 0 31 63 20 74 -5 5 -10 22 -10 37 0 22 6 30 35 39 26 8 35 17 35 33 0 41
15 52 48 38 16 -7 36 -12 43 -11 30 5 38 -1 50 -35 13 -34 14 -35 70 -35 38 0
61 -5 69 -15 7 -8 19 -15 27 -15 21 0 71 28 75 42 2 10 21 12 73 7 51 -4 64
-8 48 -13 -25 -9 -27 -14 -14 -35 10 -16 31 -6 31 15 0 9 11 14 30 14 30 0 30
0 14 -25 -16 -24 -16 -27 5 -49 12 -13 21 -35 21 -54 0 -22 6 -35 18 -40 70
-30 102 -67 102 -117 0 -14 5 -25 11 -25 13 0 40 -26 33 -33 -7 -6 45 -42 74
-51 13 -5 22 -3 22 3 0 7 30 11 80 11 l81 0 49 -46 c28 -26 50 -53 50 -60 0
-8 7 -14 15 -14 21 0 33 -31 49 -120 7 -41 17 -74 22 -73 20 4 15 -68 -7 -99
-23 -32 -17 -63 12 -63 8 0 16 -2 19 -6 3 -3 28 -12 55 -21 42 -13 51 -20 55
-43 5 -26 6 -27 19 -11 16 19 28 17 122 -26 66 -30 89 -55 89 -98 0 -23 9 -25
42 -9 19 8 35 5 81 -15 38 -17 76 -26 110 -26 44 0 59 -5 94 -34 50 -39 103
-94 100 -104 -4 -12 66 -52 92 -52 31 0 51 -16 51 -42 0 -10 5 -18 11 -18 5 0
7 -5 4 -11 -4 -6 1 -31 10 -55 26 -69 8 -150 -56 -258 -36 -60 -51 -97 -52
-125 -1 -21 -4 -37 -6 -35 -3 2 -15 -14 -28 -36 -13 -22 -30 -40 -38 -40 -28
0 -37 -38 -26 -104 14 -79 14 -253 1 -261 -5 -3 -10 -29 -10 -56 0 -33 -8 -66
-25 -99 -14 -27 -25 -65 -25 -85 0 -28 -5 -38 -25 -47 -16 -7 -25 -19 -25 -35
0 -20 -5 -23 -37 -23 -43 0 -138 -23 -156 -38 -7 -5 -27 -13 -45 -17 -38 -8
-78 -46 -98 -92 -20 -47 -17 -76 11 -103 21 -20 25 -33 25 -81 0 -32 -6 -73
-14 -91 -7 -18 -21 -64 -30 -103 -9 -38 -25 -78 -35 -90 -11 -11 -21 -40 -25
-65 -11 -95 -19 -120 -43 -144 -20 -21 -29 -24 -45 -15 -25 14 -123 39 -150
39 -12 0 -30 7 -40 17 -15 14 -18 14 -18 1 0 -8 20 -29 45 -47 32 -23 45 -39
45 -57 0 -16 8 -28 25 -36 29 -13 29 -18 13 -88 -7 -29 -19 -55 -29 -61 -10
-5 -25 -16 -34 -26 -10 -9 -27 -18 -39 -19 -151 -17 -146 -16 -136 -35 6 -10
10 -29 10 -42 0 -14 7 -30 15 -37 37 -31 -39 -53 -101 -30 -15 6 -29 8 -32 6
-8 -8 19 -36 29 -30 5 3 6 -2 3 -10 -9 -24 31 -56 64 -50 15 3 44 -1 62 -9
l35 -15 -27 -10 c-35 -14 -42 -42 -27 -101 15 -59 8 -81 -25 -81 -14 0 -28 -5
-32 -11 -9 -14 29 -64 49 -64 9 0 19 -4 24 -9 4 -5 3 -6 -4 -2 -7 4 -13 5 -13
2 0 -3 18 -15 40 -26 31 -16 41 -28 50 -60 8 -29 8 -46 0 -60 -8 -14 -8 -31
-2 -53 12 -38 12 -68 0 -61 -4 3 -8 -3 -8 -12 0 -17 75 -94 91 -94 5 0 24 -13
42 -30 30 -26 124 -75 180 -94 9 -3 17 -12 17 -21 0 -18 -50 -21 -81 -5 -15 8
-19 7 -19 -4 0 -20 -42 -31 -78 -21 -15 4 -45 9 -67 10 -22 2 -47 6 -55 9 -55
22 -130 44 -130 39 0 -4 -6 1 -13 11 -7 10 -40 32 -72 49 -37 20 -68 45 -82
67 -37 60 -74 100 -86 93 -5 -3 -7 -1 -4 4 8 13 -17 36 -28 25 -5 -4 -5 -1 -1
5 4 8 -5 29 -22 50 -38 49 -55 99 -42 123 14 27 14 27 -34 39 -43 11 -44 11
-48 58 -2 27 -14 71 -26 100 l-21 51 32 -9 c17 -5 33 -9 34 -9 6 0 -42 126
-51 132 -21 14 -25 8 -15 -24 13 -46 12 -48 -19 -48 -15 0 -34 -6 -42 -12 -12
-11 -12 -10 -1 5 12 15 6 30 -43 117 -31 56 -56 110 -56 122 0 22 -76 148 -90
148 -3 0 -7 6 -7 14 0 8 6 12 13 9 9 -3 9 10 -2 59 -7 35 -13 93 -14 130 0 83
-15 156 -46 227 -13 29 -24 71 -24 93 0 21 -9 56 -20 78 -11 22 -20 59 -20 83
0 24 -5 69 -10 98 -6 30 -24 147 -40 261 -16 115 -39 248 -50 296 -18 75 -25
91 -49 105 -15 9 -30 15 -33 12 -2 -2 -5 5 -5 17 -2 25 6 19 -83 63 -126 63
-231 159 -275 252 -14 28 -35 64 -49 80 -13 15 -56 93 -95 173 -82 163 -122
225 -172 258 -19 13 -34 26 -34 30 1 4 4 34 9 67 4 38 3 70 -3 88 -12 30 2 71
33 96 9 7 13 18 9 24 -3 6 -1 7 5 3 7 -4 17 3 24 18 14 32 3 46 -16 21 -12
-17 -17 -18 -41 -7 -22 10 -25 15 -15 27 9 11 9 22 1 47 -8 22 -8 34 -1 36 5
2 10 12 10 23 0 10 11 42 24 69 13 27 20 52 15 56 -12 7 -11 44 1 44 6 0 10 9
10 19 0 33 11 51 31 51 13 0 27 15 41 45 21 44 21 45 2 66 -10 13 -14 20 -8
16 15 -9 34 36 34 83 0 21 5 42 10 45 19 12 10 72 -15 109 -26 39 -33 80 -14
92 7 4 8 9 1 13 -5 3 -12 15 -14 26 -2 16 3 21 27 23 24 2 38 -5 65 -33 18
-19 39 -35 44 -35 21 0 84 70 91 100 8 36 39 60 77 60 18 0 28 5 28 15 0 10
10 15 28 15 19 0 38 11 59 33 30 32 69 97 58 97 -4 0 -3 5 0 10 8 12 16 13 13
1z m12094 -38 c8 -10 18 -31 22 -48 4 -16 10 -39 13 -50 5 -18 3 -17 -22 5
l-28 25 16 -31 c15 -29 15 -33 -2 -48 -17 -15 -18 -14 -29 9 -15 33 -28 32
-36 -5 -3 -16 -9 -43 -12 -60 -10 -48 -30 -57 -60 -26 l-27 26 28 21 c21 17
26 28 23 51 -6 36 5 44 28 21 16 -17 17 -16 12 7 -3 14 -9 32 -12 41 -6 13 -2
16 18 12 14 -3 26 -1 26 5 0 15 -26 33 -36 24 -5 -4 -6 -3 -2 2 4 5 3 15 -3
23 -18 21 64 17 83 -4z m128 -286 c0 -11 4 -15 12 -11 7 4 8 3 4 -5 -4 -6 -2
-18 4 -27 9 -9 10 -28 6 -57 -4 -23 -8 -50 -9 -59 -2 -22 -27 -24 -27 -3 0 8
-4 15 -10 15 -5 0 -7 8 -4 18 5 15 4 14 -6 -2 -9 -13 -9 -24 -1 -42 13 -30 -4
-75 -28 -72 -19 4 -81 63 -81 78 0 6 -4 8 -10 5 -5 -3 -2 7 7 24 17 28 17 30
-1 50 -17 19 -21 19 -35 7 -9 -8 -20 -15 -26 -15 -5 -1 -19 -8 -29 -17 -14
-12 -24 -14 -34 -7 -16 10 -24 53 -10 53 4 0 8 6 8 13 0 20 81 70 93 58 12
-12 57 7 57 26 0 7 9 13 21 13 17 0 19 4 13 23 -3 12 -11 24 -15 25 -5 2 -6 8
-3 14 9 14 104 -82 104 -105z m-2850 63 c6 -11 14 -18 19 -16 4 3 8 -16 10
-41 2 -43 22 -89 33 -78 2 3 6 -21 7 -54 2 -55 0 -60 -28 -80 -16 -12 -33 -21
-39 -21 -16 0 -46 121 -46 190 -1 104 18 148 44 100z m2307 -212 c18 -16 23
-32 23 -68 0 -39 4 -49 24 -59 13 -8 26 -24 29 -36 3 -20 2 -22 -14 -12 -24
15 -33 4 -19 -22 9 -18 7 -23 -14 -33 -15 -6 -30 -25 -37 -45 -9 -28 -8 -38
10 -67 12 -18 21 -38 21 -44 0 -6 17 -28 37 -49 l38 -38 -38 -3 c-33 -3 -42
-11 -38 -34 0 -5 -3 -8 -9 -8 -5 0 -10 -18 -10 -40 0 -35 -5 -43 -35 -62 -30
-20 -35 -28 -35 -64 0 -57 -21 -158 -30 -143 -6 9 -16 9 -39 1 -29 -10 -33 -9
-43 13 -8 18 -19 25 -40 25 -15 0 -28 5 -28 11 0 11 -35 8 -71 -6 -10 -4 -19
3 -27 20 -9 20 -19 25 -50 25 -21 0 -42 -4 -48 -10 -6 -6 -8 5 -6 30 4 44 -5
96 -16 86 -12 -12 -32 78 -32 145 0 56 3 69 24 88 20 19 27 20 48 10 39 -17
70 3 67 44 -4 45 6 57 52 57 38 0 41 3 83 68 24 37 53 75 65 86 11 10 18 23
14 29 -3 5 -1 7 4 4 15 -10 70 56 78 92 8 37 29 40 62 9z m-1313 -130 c22 -6
50 -20 62 -30 11 -10 24 -15 29 -11 4 5 5 3 2 -3 -7 -12 25 -47 36 -39 4 3 5
2 2 -2 -7 -8 35 -53 50 -53 6 0 31 -20 55 -45 36 -37 51 -45 80 -45 39 0 61
-16 107 -77 29 -40 51 -62 78 -78 13 -8 14 -15 4 -43 -13 -38 3 -71 26 -52 10
8 12 3 8 -26 -4 -27 -2 -34 8 -29 7 5 10 4 6 -3 -13 -19 5 -42 32 -42 20 0 31
-7 39 -24 10 -22 5 -54 -33 -222 -4 -16 -14 -23 -40 -26 -31 -3 -39 0 -60 28
-14 18 -25 36 -25 39 0 4 -18 23 -39 41 -21 19 -42 46 -45 59 -7 29 -12 29
-87 12 -43 -11 -56 -11 -56 -2 0 20 -55 147 -81 186 -13 21 -34 70 -48 110
-14 41 -36 85 -49 99 -14 14 -30 42 -37 62 -7 20 -36 61 -65 92 -29 31 -49 56
-46 56 4 0 2 5 -5 12 -7 7 -12 25 -12 40 0 25 4 28 31 28 18 0 50 -5 73 -12z
m1811 -336 c-32 -48 -65 -65 -101 -52 -14 6 -61 10 -105 10 -90 0 -95 -6 -56
-65 22 -34 37 -44 37 -25 0 6 8 10 18 10 10 0 22 3 25 6 4 4 24 8 46 10 28 3
41 -1 45 -11 4 -10 -1 -15 -14 -15 -11 0 -20 -7 -20 -15 0 -8 -13 -24 -29 -36
l-29 -22 21 -43 c15 -33 18 -47 10 -55 -9 -9 -6 -23 10 -55 11 -24 18 -46 14
-50 -12 -13 -36 5 -52 40 -10 20 -21 36 -26 36 -5 0 -9 18 -9 40 0 37 -2 40
-19 31 -16 -9 -19 -24 -20 -113 -1 -56 -4 -104 -6 -107 -11 -10 -57 -6 -67 7
-9 10 -8 22 0 46 17 47 16 106 -3 106 -19 0 -30 62 -16 88 6 12 11 39 11 61 0
75 19 134 56 174 33 36 38 38 66 28 17 -6 60 -11 95 -11 52 0 71 5 101 25 47
32 55 14 17 -43z m555 -97 c4 -3 14 -37 21 -76 12 -67 34 -100 54 -81 5 4 5 1
1 -5 -4 -7 -5 -13 -2 -13 2 0 12 -3 22 -7 12 -4 15 -3 10 5 -4 7 -3 12 3 12 5
0 18 14 28 30 9 17 22 30 28 30 7 0 20 8 31 18 22 21 67 17 120 -11 17 -9 60
-27 95 -41 93 -35 239 -110 279 -143 37 -30 40 -37 48 -91 4 -28 12 -37 54
-58 43 -22 49 -28 46 -52 -2 -22 -8 -26 -25 -24 -32 5 -31 -37 2 -68 13 -12
30 -38 36 -57 9 -28 15 -34 31 -30 14 4 22 0 25 -13 3 -11 14 -22 24 -25 15
-5 18 -12 13 -27 -5 -17 -3 -20 10 -15 10 4 15 3 11 -3 -3 -6 -1 -10 6 -10 8
0 8 -4 -1 -15 -14 -17 -70 -21 -70 -5 0 6 -26 10 -57 10 -32 0 -65 6 -73 13
-27 21 -57 70 -70 113 -18 59 -56 70 -122 37 -37 -18 -48 -29 -48 -47 0 -27
-46 -54 -64 -36 -5 5 -27 10 -47 10 -31 0 -40 5 -62 39 -20 29 -32 39 -47 36
-11 -2 -18 0 -15 6 4 5 -3 9 -14 9 -11 0 -23 -4 -26 -10 -6 -10 -85 -15 -85
-5 0 17 52 84 70 90 17 5 20 15 20 58 0 62 -9 99 -21 91 -5 -3 -7 1 -4 8 5 16
-98 78 -130 78 -12 0 -44 16 -71 35 -47 34 -49 34 -58 15 -12 -27 -48 -22 -61
8 -7 15 -19 22 -40 23 l-30 0 25 11 c14 6 41 14 60 18 33 7 33 8 -15 9 -45 1
-52 4 -68 32 -10 18 -20 29 -23 26 -9 -8 -40 24 -48 49 -7 23 11 32 79 41 16
2 34 8 40 14 9 10 86 6 105 -6z m1098 -289 c-1 -30 -6 -52 -10 -50 -5 3 -8 0
-8 -6 0 -6 -8 -14 -17 -17 -10 -4 -39 -22 -65 -40 -26 -18 -53 -33 -60 -33
-36 0 -76 26 -95 61 l-21 39 38 0 c28 0 42 6 53 23 l16 22 0 -22 c1 -15 7 -23
19 -23 25 0 87 47 88 68 1 9 2 20 3 25 1 4 15 7 32 7 l30 0 -3 -54z m-2808
-131 c23 -8 47 -12 53 -8 6 3 7 1 3 -5 -4 -7 3 -14 19 -18 14 -3 25 -10 25
-15 0 -5 24 -9 54 -9 50 0 55 2 58 24 l3 24 55 -23 c33 -14 61 -33 70 -49 8
-14 20 -26 25 -26 22 0 155 -43 149 -49 -20 -20 -71 -27 -113 -14 -24 7 -68
13 -98 13 -34 0 -71 8 -101 22 -30 13 -81 24 -142 29 -69 6 -98 13 -107 24 -6
9 -20 15 -31 13 -26 -4 -26 6 0 47 27 40 23 39 78 20z m2150 -360 c0 -25 5
-45 10 -45 6 0 10 -42 10 -105 l0 -105 25 10 c22 8 25 7 25 -11 0 -11 7 -22
16 -26 15 -5 15 -7 0 -15 -13 -7 -16 -28 -16 -111 -1 -74 -5 -107 -15 -121
-23 -30 -18 -62 13 -88 15 -13 28 -31 30 -39 2 -7 12 -23 23 -34 16 -18 17
-23 5 -35 -13 -13 -20 -61 -17 -112 1 -10 8 -18 16 -18 12 0 13 -5 4 -27 -7
-20 -7 -40 2 -70 21 -77 0 -159 -95 -362 -6 -14 -41 -58 -78 -98 -38 -40 -68
-78 -68 -84 0 -6 -28 -39 -61 -74 -45 -47 -74 -69 -109 -80 -27 -9 -60 -27
-74 -40 -14 -13 -36 -27 -48 -31 -13 -3 -89 -71 -169 -150 -146 -144 -146
-144 -193 -144 -29 0 -79 -13 -136 -35 -49 -19 -94 -35 -99 -35 -13 0 -43 49
-36 60 10 17 -8 11 -64 -20 -30 -17 -52 -27 -48 -24 12 13 -15 34 -44 34 -15
0 -31 5 -34 10 -4 6 -10 8 -15 5 -5 -3 -12 0 -16 6 -4 8 -3 9 4 5 8 -5 12 2
12 19 0 14 11 42 25 62 13 20 21 41 18 46 -3 6 -1 7 4 4 6 -4 14 0 17 9 11 30
6 44 -16 44 -22 1 -22 1 3 15 15 8 29 22 33 30 5 13 0 12 -22 -4 -16 -11 -40
-23 -55 -26 -15 -4 -24 -11 -21 -16 3 -5 -3 -6 -12 -2 -16 6 -15 8 6 22 32 22
81 73 76 78 -8 9 -86 -43 -79 -52 9 -9 -15 3 -34 18 -10 7 -9 15 2 38 8 15 15
44 15 63 0 19 5 38 11 41 18 12 -31 55 -62 55 -15 0 -31 5 -34 10 -10 16 -96
12 -109 -5 -6 -8 -33 -19 -61 -26 -27 -6 -75 -22 -106 -35 -31 -13 -62 -24
-68 -24 -6 0 -11 -5 -11 -11 0 -5 -5 -7 -10 -4 -6 4 -28 -9 -50 -29 -47 -42
-73 -50 -137 -42 -71 8 -73 9 -73 18 0 19 -86 7 -122 -17 -20 -14 -42 -25 -48
-25 -6 0 -33 -11 -60 -25 -33 -17 -65 -25 -97 -25 -44 1 -50 4 -75 41 -33 46
-37 89 -10 89 57 0 202 239 202 334 0 25 4 65 10 88 5 24 12 54 15 68 3 14 9
32 15 40 9 13 12 13 21 -4 17 -27 29 -2 29 59 0 41 7 61 35 105 20 30 34 63
31 72 -2 10 9 34 25 54 16 20 29 31 29 24 0 -7 21 6 48 29 61 54 72 63 72 56
0 -3 8 -1 19 4 10 6 34 12 52 14 19 2 44 9 56 15 12 7 31 12 42 12 12 0 29 4
39 9 9 6 34 13 55 16 20 3 37 10 37 16 0 6 4 7 10 4 15 -9 68 22 75 44 3 11
22 30 41 42 19 12 42 33 52 48 22 35 77 96 89 98 5 1 7 -12 5 -29 -3 -21 -1
-29 7 -24 6 4 11 18 11 31 0 39 21 77 36 64 9 -8 15 -5 24 10 6 12 19 21 29
21 20 0 71 36 71 51 0 17 32 46 49 43 63 -12 72 -17 86 -44 14 -27 21 -30 60
-30 43 0 45 1 45 29 0 18 13 47 35 75 19 26 35 53 35 61 0 8 8 19 18 24 9 6
13 11 7 11 -28 1 25 20 57 20 27 0 40 6 48 21 13 23 9 65 -5 62 -6 0 -16 5
-23 13 -26 28 34 15 73 -16 21 -16 43 -30 49 -30 6 0 23 -6 38 -14 27 -14 67
-7 107 18 16 10 31 -9 31 -40 0 -24 -36 -74 -53 -74 -12 0 -37 -59 -40 -92 -1
-9 -5 -14 -9 -12 -4 3 -8 -3 -8 -12 0 -10 29 -48 65 -85 36 -37 65 -72 65 -78
0 -6 11 -16 25 -21 14 -5 29 -20 34 -33 12 -30 36 -40 62 -27 23 13 51 64 41
75 -4 5 -2 5 5 1 12 -7 43 30 47 57 1 7 12 24 24 37 18 20 22 35 22 90 0 55 4
74 25 104 14 21 26 48 27 62 1 13 6 24 9 24 6 0 15 22 44 118 10 29 25 8 25
-33z m-5745 -95 c-3 -5 14 -24 40 -42 l45 -32 0 -122 c0 -93 -3 -124 -14 -133
-12 -10 -17 -8 -26 9 -15 29 -30 16 -30 -27 0 -20 -6 -44 -14 -52 -18 -22 -37
-81 -29 -94 3 -5 2 -7 -4 -4 -12 8 -46 -61 -37 -75 4 -6 3 -8 -3 -5 -12 8 -86
-141 -77 -155 4 -6 3 -8 -3 -5 -12 8 -86 -141 -77 -155 4 -6 3 -8 -3 -5 -5 3
-21 -18 -36 -48 -21 -44 -36 -59 -73 -78 l-47 -24 -39 26 -39 25 2 168 c1 106
5 166 12 165 5 -1 21 13 34 32 20 29 23 46 23 118 0 70 4 92 25 133 14 28 31
50 39 50 7 0 30 11 50 25 20 14 43 25 51 25 20 0 105 100 112 132 3 15 11 28
18 28 19 0 57 47 53 67 -2 10 8 28 22 40 28 25 34 28 25 13z m6518 -1670 c-3
-12 2 -28 10 -38 15 -16 15 -20 -3 -47 -10 -16 -16 -33 -13 -38 3 -6 2 -7 -3
-4 -6 3 -16 -3 -23 -15 -7 -11 -8 -17 -2 -13 19 11 12 -21 -9 -40 -26 -23 -25
-34 1 -44 21 -7 21 -8 -11 -31 -18 -13 -53 -27 -77 -31 -31 -6 -59 -21 -88
-46 -23 -21 -50 -45 -61 -53 -22 -18 -136 -70 -153 -70 -6 0 -11 -5 -11 -12 0
-6 -3 -8 -7 -5 -3 4 -12 -2 -20 -12 -7 -11 -37 -29 -66 -39 -28 -11 -81 -34
-117 -51 -36 -17 -72 -31 -81 -31 -9 0 -19 -7 -23 -15 -3 -9 -18 -15 -34 -15
-45 0 -101 -23 -182 -75 -118 -77 -280 -137 -280 -105 0 6 -12 10 -26 10 -14
0 -23 4 -20 9 3 4 79 41 168 81 199 89 296 135 413 200 121 67 259 112 267 88
4 -12 58 11 58 24 0 5 4 7 8 4 18 -11 36 14 35 48 -1 32 2 36 51 56 86 35 99
43 141 86 57 58 85 99 85 124 0 38 41 120 60 120 13 0 17 -6 13 -20z m-1923
-440 c0 -14 46 -13 87 2 42 15 51 6 24 -28 -11 -14 -18 -31 -14 -38 3 -6 3 -8
-2 -4 -4 4 -13 1 -19 -7 -17 -23 -130 -87 -134 -76 -2 6 -27 -1 -57 -16 -30
-15 -57 -24 -61 -21 -8 8 13 46 47 85 15 18 31 48 35 68 3 19 9 33 13 31 4 -3
13 -1 21 5 20 12 60 11 60 -1z"/>
<path d="M27463 36657 c-31 -15 -43 -27 -45 -46 -2 -17 -10 -27 -23 -29 -44
-8 -58 -59 -25 -92 11 -11 20 -22 20 -25 -1 -21 39 -71 87 -108 32 -25 74 -61
92 -81 19 -20 39 -36 44 -36 5 0 20 -9 34 -19 l24 -20 -35 6 c-35 5 -36 5 -36
-26 0 -17 11 -54 25 -81 26 -51 58 -74 147 -106 53 -18 128 -2 128 28 0 10 -4
17 -9 14 -5 -3 -8 0 -8 7 3 31 -27 96 -49 106 -16 7 -24 19 -24 36 0 20 -5 25
-25 25 -18 0 -25 5 -25 19 0 11 -10 36 -21 56 -16 27 -24 33 -34 25 -11 -9
-14 -4 -17 22 -3 28 -9 35 -47 49 -31 11 -53 29 -77 62 -40 55 -43 77 -11 78
12 0 16 3 10 6 -7 2 -13 10 -13 16 0 8 15 11 46 8 44 -3 46 -2 39 20 -4 13
-12 27 -17 30 -5 3 -9 8 -7 10 1 2 -1 15 -6 27 -6 20 -12 23 -41 20 -19 -2
-34 -1 -34 3 0 17 -28 15 -67 -4z"/>
<path d="M26500 36636 c0 -32 -38 -116 -56 -123 -8 -3 -14 -19 -14 -38 0 -18
-7 -38 -15 -45 -26 -22 -18 -48 20 -60 19 -6 35 -17 35 -24 0 -7 11 -18 25
-24 14 -6 25 -17 25 -23 0 -19 132 -7 165 15 41 27 133 22 194 -9 56 -28 144
-48 190 -43 29 3 36 8 47 41 17 50 0 88 -48 108 -18 7 -53 27 -78 45 -25 17
-76 42 -115 55 -38 13 -71 25 -73 26 -2 1 6 11 18 23 l22 22 -23 16 -23 16 34
11 c19 6 36 17 38 23 6 18 -83 15 -98 -3 -7 -8 -25 -15 -41 -15 -37 0 -42 -11
-23 -49 12 -24 22 -31 45 -31 22 0 29 -5 29 -20 0 -15 -7 -20 -29 -20 -19 0
-36 -8 -48 -24 -16 -20 -22 -22 -36 -11 -9 7 -17 19 -17 27 0 8 -14 19 -32 24
-38 11 -49 39 -19 49 12 3 21 11 21 17 0 5 -7 7 -16 4 -9 -3 -12 -2 -9 4 4 6
-7 15 -24 21 -17 6 -31 17 -31 25 0 8 -9 14 -20 14 -14 0 -20 -7 -20 -24z"/>
<path d="M25618 36569 c-10 -5 -18 -15 -18 -20 0 -6 6 -7 13 -3 10 6 10 4 0
-7 -15 -16 -17 -33 -3 -24 5 3 7 0 4 -8 -3 -8 2 -21 11 -28 9 -8 41 -38 71
-66 43 -42 61 -53 87 -53 35 0 69 -33 44 -44 -24 -9 17 -27 48 -20 60 13 84
12 79 -1 -3 -7 -1 -16 5 -20 7 -4 11 5 11 23 0 36 -62 97 -88 87 -9 -3 -13 -3
-9 1 9 9 -22 44 -40 44 -7 0 -22 9 -33 20 -11 11 -20 17 -20 13 0 -5 -12 12
-26 35 -19 32 -29 41 -37 33 -18 -18 -27 -12 -27 19 0 26 -4 30 -27 30 -16 0
-36 -5 -45 -11z"/>
<path d="M27530 27770 c-14 -4 -65 -9 -115 -9 -49 -1 -182 -9 -295 -17 -113
-8 -216 -14 -230 -14 -14 0 -448 -25 -965 -55 l-940 -56 -480 10 c-264 6 -529
10 -590 9 l-110 -1 135 -8 c74 -4 342 -12 595 -18 1017 -24 2235 37 3140 158
59 8 59 8 -30 9 -49 0 -101 -4 -115 -8z"/>
<path d="M19127 25750 c-161 -15 -290 -42 -427 -86 -344 -113 -591 -324 -756
-647 -64 -126 -133 -327 -163 -477 -48 -240 -201 -1148 -212 -1252 -46 -455
98 -781 417 -942 212 -107 527 -156 879 -136 290 17 515 72 717 177 338 174
566 499 678 963 38 156 220 1219 230 1339 11 137 -1 305 -30 422 -86 347 -347
553 -790 625 -113 18 -419 26 -543 14z m254 -761 c162 -47 241 -194 226 -424
-7 -104 -177 -1073 -208 -1185 -66 -238 -184 -364 -389 -416 -92 -23 -293 -16
-371 15 -160 62 -212 179 -190 424 15 166 184 1114 215 1205 65 189 182 317
342 373 117 41 252 44 375 8z"/>
<path d="M34590 25749 c-237 -19 -443 -62 -613 -129 -323 -126 -552 -371 -632
-676 -45 -173 -59 -430 -30 -569 24 -115 91 -237 182 -330 144 -148 275 -219
599 -325 361 -117 433 -143 519 -186 121 -60 183 -109 222 -173 39 -65 49
-124 34 -199 -15 -74 -43 -114 -114 -162 -83 -56 -173 -74 -362 -74 -207 0
-304 27 -389 110 -72 70 -97 177 -73 317 l8 47 -430 0 -429 0 -10 -47 c-25
-115 -34 -234 -29 -368 6 -162 21 -227 78 -344 131 -266 440 -402 982 -430
462 -24 838 35 1122 177 224 112 396 313 473 552 47 146 57 225 57 440 -1 196
-2 209 -27 285 -36 107 -85 186 -166 268 -72 74 -197 162 -277 197 -94 42
-280 101 -475 151 -379 99 -542 183 -607 317 -23 47 -25 61 -21 136 3 67 9 92
32 130 71 122 254 185 506 173 131 -6 197 -23 266 -70 127 -85 151 -312 49
-462 l-34 -50 421 -3 c392 -2 422 -1 434 15 33 44 85 166 106 248 29 119 32
345 4 445 -47 168 -145 301 -304 409 -113 76 -259 129 -452 162 -136 24 -441
33 -620 18z"/>
<path d="M38985 25754 c-185 -19 -255 -28 -355 -51 -143 -31 -244 -68 -365
-131 -330 -174 -551 -475 -654 -892 -35 -144 -239 -1308 -251 -1440 -40 -411
76 -716 333 -868 122 -73 311 -131 502 -153 151 -17 477 -15 625 5 676 91
1066 449 1180 1086 11 63 22 123 24 133 4 16 -22 17 -427 17 l-432 0 -17 -76
c-39 -170 -138 -310 -265 -377 -85 -44 -148 -57 -271 -57 -158 0 -258 37 -316
117 -82 113 -78 201 47 919 53 302 106 581 118 620 61 199 178 327 350 383 64
21 187 30 262 19 220 -30 321 -206 287 -501 -17 -150 -53 -254 -122 -354 l-29
-43 423 0 423 0 47 88 c56 105 108 253 140 394 31 138 33 393 4 508 -84 343
-364 569 -790 636 -89 15 -392 26 -471 18z"/>
<path d="M42023 25750 c-480 -47 -827 -222 -1057 -534 -120 -162 -225 -405
-275 -640 -49 -228 -212 -1192 -223 -1319 -32 -377 68 -677 279 -837 169 -128
378 -190 701 -210 455 -28 866 63 1147 253 135 92 294 276 373 433 47 93 106
275 130 399 40 205 102 550 102 563 0 9 -133 12 -633 12 l-632 0 -43 -242
c-24 -134 -46 -253 -49 -265 l-5 -23 197 0 196 0 -6 -22 c-19 -69 -88 -188
-136 -235 -97 -95 -199 -133 -359 -133 -216 1 -333 69 -377 219 -22 76 -12
247 26 461 16 91 57 320 90 510 73 408 90 479 144 585 96 188 255 284 472 287
258 3 380 -131 379 -417 0 -140 -15 -208 -69 -317 l-43 -88 422 0 423 0 41 88
c46 98 81 206 108 332 14 64 19 127 19 260 -1 202 -11 252 -80 395 -123 253
-370 414 -725 471 -115 18 -411 26 -537 14z"/>
<path d="M4096 25693 c-3 -16 -139 -784 -301 -1708 -163 -924 -298 -1688 -301
-1697 -5 -17 20 -18 428 -18 l433 0 58 328 c127 726 277 1568 283 1592 4 18
54 -145 168 -550 l162 -575 315 -3 315 -2 364 571 c200 314 366 567 367 562 2
-6 -25 -174 -61 -374 -36 -200 -110 -620 -166 -934 -55 -313 -103 -580 -105
-592 l-5 -23 434 0 434 0 6 33 c297 1683 596 3388 596 3400 0 16 -35 17 -452
15 l-451 -3 -548 -819 c-301 -450 -549 -819 -551 -821 -2 -2 -118 367 -258
821 l-255 824 -452 0 -451 0 -6 -27z"/>
<path d="M8175 25708 c-2 -7 -29 -157 -60 -333 -31 -176 -114 -653 -186 -1060
-71 -407 -139 -796 -151 -865 -26 -154 -31 -435 -9 -545 88 -440 399 -659 986
-694 385 -23 748 38 1007 171 240 122 412 301 542 565 101 204 140 347 221
801 85 484 345 1963 345 1968 0 2 -193 4 -429 4 l-430 0 -10 -52 c-6 -29 -51
-285 -101 -568 -317 -1789 -308 -1745 -372 -1880 -21 -43 -54 -87 -97 -131
-56 -56 -79 -71 -151 -99 -75 -29 -99 -34 -203 -38 -355 -14 -482 127 -438
488 6 52 88 527 182 1055 93 528 179 1012 190 1075 11 63 22 123 25 133 5 16
-20 17 -426 17 -336 0 -432 -3 -435 -12z"/>
<path d="M11525 25708 c-4 -13 -605 -3421 -605 -3432 0 -3 195 -6 433 -6 l432
0 158 923 c87 507 161 930 165 941 5 12 106 -289 308 -920 l300 -939 434 -3
435 -2 174 997 c96 549 189 1081 207 1183 18 102 51 289 73 415 22 127 63 361
90 520 28 160 53 300 56 313 l5 22 -432 -2 -432 -3 -152 -855 c-169 -956 -158
-901 -167 -880 -4 8 -133 391 -287 850 -154 459 -285 847 -291 863 l-11 27
-445 0 c-346 0 -445 -3 -448 -12z"/>
<path d="M14860 25653 c-6 -37 -143 -813 -303 -1723 l-292 -1655 755 -3 c818
-2 883 1 1081 52 484 127 836 495 968 1012 35 136 221 1221 233 1358 26 287
-46 549 -197 724 -55 63 -158 138 -250 182 -96 45 -154 64 -277 92 -89 20
-124 21 -900 25 l-806 4 -12 -68z m1257 -701 c119 -38 188 -93 237 -190 69
-137 63 -258 -38 -827 -42 -236 -88 -470 -101 -519 -62 -216 -169 -336 -340
-381 -46 -12 -120 -15 -338 -15 l-279 0 6 28 c3 15 76 430 161 922 86 492 160
921 167 954 l11 58 226 -4 c190 -5 236 -9 288 -26z"/>
<path d="M22071 25368 c-34 -194 -65 -361 -67 -370 -5 -17 28 -18 585 -18
l591 0 0 -21 c0 -12 -74 -445 -165 -963 -91 -517 -195 -1107 -230 -1311 -36
-203 -67 -380 -70 -392 l-5 -23 434 0 434 0 16 93 c9 50 79 450 156 887 77
437 176 1005 222 1263 l82 467 591 0 590 0 43 243 c24 133 54 299 66 370 l23
127 -1616 0 -1617 0 -63 -352z"/>
<path d="M25760 25710 c0 -6 -135 -775 -300 -1710 -165 -935 -300 -1707 -300
-1715 0 -13 137 -15 1199 -15 1134 0 1200 1 1205 18 9 30 126 692 126 712 0
20 -9 20 -769 20 l-770 0 6 33 c3 17 24 142 47 277 l42 245 639 5 639 5 62
344 c34 189 65 356 68 372 l6 29 -640 0 -640 0 5 23 c6 27 105 612 105 621 0
3 349 6 775 6 426 0 775 3 775 8 0 4 29 169 65 367 36 198 65 361 65 363 0 1
-542 2 -1205 2 -802 0 -1205 -3 -1205 -10z"/>
<path d="M28422 24003 c-166 -945 -302 -1721 -302 -1726 0 -4 194 -6 432 -5
l432 3 23 135 c13 74 52 302 87 505 35 204 97 561 137 795 40 234 75 428 78
432 3 4 141 -416 306 -932 l300 -940 434 3 435 2 48 275 c27 151 84 480 128
730 43 250 111 635 149 855 39 220 115 659 171 975 55 316 102 583 104 593 4
16 -22 17 -427 17 l-432 0 -155 -875 c-85 -481 -157 -872 -161 -867 -5 6 -320
934 -546 1610 l-45 132 -446 0 -447 0 -303 -1717z"/>
<path d="M32066 25693 c-3 -16 -139 -784 -301 -1708 -163 -924 -298 -1688
-301 -1697 -5 -17 20 -18 430 -18 240 0 436 2 436 4 0 5 361 2073 410 2346 16
91 47 269 69 395 22 127 59 333 81 459 22 126 40 233 40 237 0 5 -193 9 -429
9 l-429 0 -6 -27z"/>
<path d="M43892 24002 c-336 -944 -612 -1720 -612 -1724 0 -5 205 -8 454 -8
l455 0 45 143 c24 78 77 247 117 375 l73 232 403 0 404 0 -6 -107 c-6 -122
-25 -573 -25 -615 l0 -28 456 0 456 0 -6 828 c-3 455 -9 1231 -12 1725 l-6
897 -792 0 -791 0 -613 -1718z m1408 806 c-1 -126 -47 -1128 -52 -1134 -3 -2
-144 -3 -315 -2 l-309 3 173 555 c95 305 180 579 188 608 l16 52 149 0 150 0
0 -82z"/>
<path d="M1860 20175 l0 -365 23100 0 23100 0 0 365 0 365 -23100 0 -23100 0
0 -365z"/>
<path d="M5235 17915 c-110 -66 -144 -91 -158 -119 -16 -31 -17 -38 -3 -70 15
-35 66 -76 96 -76 20 0 285 106 317 127 50 33 69 116 37 162 -19 27 -88 61
-124 60 -14 0 -88 -38 -165 -84z"/>
<path d="M11650 17609 c-103 -13 -178 -36 -206 -64 l-24 -24 0 -458 c0 -442 1
-459 20 -491 42 -68 209 -108 410 -98 201 9 333 60 435 167 123 129 172 336
131 552 -28 145 -125 282 -246 346 -121 64 -335 94 -520 70z m316 -277 c97
-50 144 -146 144 -291 0 -210 -83 -311 -263 -319 -42 -2 -88 -1 -102 2 l-25 6
0 309 c0 169 3 311 8 315 4 5 50 6 102 4 72 -3 105 -9 136 -26z"/>
<path d="M29555 17610 c-139 -16 -215 -42 -235 -79 -6 -13 -10 -180 -10 -468
0 -511 -2 -499 80 -540 106 -53 366 -67 528 -28 179 43 316 166 373 335 30 89
37 267 15 370 -43 204 -174 337 -383 391 -89 23 -263 32 -368 19z m301 -277
c98 -52 147 -148 147 -293 1 -118 -22 -190 -77 -244 -57 -57 -119 -78 -222
-74 l-79 3 -3 319 -2 318 97 -4 c74 -3 108 -9 139 -25z"/>
<path d="M31870 17609 c-103 -13 -178 -36 -206 -64 l-24 -24 0 -458 c0 -442 1
-459 20 -491 26 -43 82 -67 201 -88 103 -18 269 -15 369 6 260 56 419 266 420
553 0 286 -142 482 -397 548 -92 23 -273 32 -383 18z m316 -277 c97 -50 144
-146 144 -291 0 -209 -81 -309 -261 -319 -43 -2 -89 -2 -103 2 l-24 6 -2 308
c0 169 3 312 7 316 4 4 51 6 103 4 72 -3 105 -9 136 -26z"/>
<path d="M6075 17603 c-333 -44 -526 -340 -460 -708 36 -205 177 -356 382
-409 234 -61 479 -2 510 123 15 59 -46 180 -79 154 -33 -26 -132 -53 -197 -53
-188 0 -299 105 -309 294 -8 156 35 261 132 321 46 28 56 30 150 30 94 0 105
-2 166 -33 l65 -33 33 35 c28 31 32 43 32 88 0 78 -43 130 -135 166 -66 25
-200 37 -290 25z"/>
<path d="M9235 17604 c-11 -2 -45 -9 -75 -15 -175 -34 -320 -164 -381 -340
-30 -88 -38 -275 -15 -373 34 -145 134 -280 254 -344 91 -48 171 -66 302 -66
99 1 126 4 195 28 177 61 282 169 336 346 28 90 33 270 10 360 -46 184 -180
325 -361 381 -62 19 -222 33 -265 23z m180 -263 c51 -24 88 -63 117 -126 20
-44 23 -65 23 -180 0 -115 -3 -136 -24 -183 -25 -56 -75 -106 -127 -128 -90
-38 -230 0 -279 75 -45 67 -57 118 -58 236 0 118 12 167 58 236 52 79 196 114
290 70z"/>
<path d="M10354 17600 c-81 -12 -151 -39 -202 -78 -59 -45 -67 -55 -99 -122
-36 -75 -38 -184 -3 -255 46 -95 116 -141 325 -215 66 -23 132 -49 147 -56 32
-16 45 -55 32 -93 -30 -85 -258 -82 -395 5 -43 27 -57 24 -95 -18 -55 -60 -51
-148 8 -205 73 -69 173 -97 343 -97 178 0 292 34 374 114 70 68 86 110 86 225
0 117 -15 155 -87 221 -67 62 -130 94 -277 144 -105 35 -139 51 -154 72 -17
23 -19 31 -9 53 20 43 73 58 182 53 72 -4 110 -11 160 -32 l65 -26 33 36 c28
32 32 45 32 92 0 44 -5 62 -26 90 -61 79 -254 119 -440 92z"/>
<path d="M15085 17604 c-11 -2 -45 -9 -75 -15 -175 -34 -320 -164 -381 -340
-30 -88 -38 -275 -15 -373 37 -155 139 -288 270 -350 101 -48 165 -61 291 -60
92 1 123 5 188 28 226 77 347 243 364 501 19 287 -129 512 -387 589 -54 16
-216 29 -255 20z m180 -263 c51 -24 88 -63 117 -126 20 -44 23 -65 23 -180 0
-114 -3 -136 -23 -180 -13 -27 -35 -63 -50 -79 -96 -102 -291 -83 -365 35 -84
136 -67 394 31 487 66 61 185 81 267 43z"/>
<path d="M20135 17604 c-11 -2 -45 -9 -75 -15 -175 -36 -327 -175 -381 -348
-28 -92 -36 -254 -15 -349 30 -142 114 -269 223 -338 28 -19 87 -46 130 -60
65 -23 96 -27 188 -28 126 -1 190 12 291 60 124 58 224 183 265 329 22 78 19
306 -5 375 -80 235 -255 363 -510 375 -50 2 -100 2 -111 -1z m211 -279 c90
-56 136 -203 114 -363 -23 -168 -105 -252 -245 -252 -103 0 -171 46 -217 145
-21 45 -23 65 -22 185 0 150 8 180 66 246 49 56 99 75 184 72 58 -3 80 -9 120
-33z"/>
<path d="M21254 17601 c-78 -13 -148 -39 -196 -73 -57 -42 -74 -63 -105 -128
-22 -45 -27 -69 -26 -130 1 -172 87 -253 373 -350 52 -17 110 -41 128 -52 30
-18 33 -24 30 -61 -2 -30 -10 -45 -31 -61 -25 -18 -43 -21 -135 -21 -115 0
-97 -5 -275 83 -14 7 -75 -64 -85 -100 -28 -103 51 -190 208 -229 71 -17 279
-18 350 0 123 30 215 94 262 183 20 37 23 58 23 143 0 84 -4 107 -22 141 -51
95 -171 171 -370 234 -117 37 -153 64 -137 107 5 14 25 34 44 45 53 29 211 21
300 -16 l65 -26 33 36 c28 33 32 44 32 95 0 47 -5 63 -26 89 -51 59 -136 88
-289 94 -55 3 -123 1 -151 -3z"/>
<path d="M26303 17596 c-210 -40 -370 -194 -419 -403 -24 -102 -15 -296 18
-385 70 -189 205 -297 418 -334 177 -31 333 -3 407 71 39 38 43 47 43 90 0 47
-21 105 -45 125 -9 7 -28 3 -71 -17 -68 -31 -192 -43 -260 -24 -89 24 -170
104 -196 195 -18 64 -15 202 6 265 22 63 73 124 130 154 34 18 58 22 136 22
88 0 101 -3 163 -33 65 -32 69 -33 87 -17 10 9 26 32 34 50 46 96 -15 191
-148 230 -73 22 -217 27 -303 11z"/>
<path d="M27331 17595 c-209 -39 -363 -184 -416 -390 -20 -78 -20 -262 0 -340
48 -188 181 -325 370 -381 84 -25 268 -25 349 0 196 59 322 188 373 379 22 84
22 261 0 346 -49 183 -184 321 -366 375 -78 23 -222 28 -310 11z m261 -271
c78 -55 105 -114 115 -250 15 -213 -66 -348 -216 -361 -85 -8 -146 11 -197 62
-59 59 -79 123 -79 255 0 135 22 208 80 265 50 51 91 65 182 62 62 -2 78 -7
115 -33z"/>
<path d="M33215 17594 c-205 -40 -358 -185 -410 -389 -20 -78 -20 -262 0 -340
67 -263 303 -422 592 -400 258 19 438 162 500 398 22 84 22 261 0 346 -77 288
-361 449 -682 385z m233 -250 c76 -32 121 -95 142 -202 16 -77 8 -209 -16
-276 -21 -60 -86 -129 -138 -146 -52 -17 -153 -9 -201 16 -93 48 -143 177
-132 339 10 138 51 215 139 259 61 31 147 35 206 10z"/>
<path d="M34415 17604 c-11 -2 -45 -9 -75 -15 -165 -34 -268 -143 -278 -295
-6 -102 16 -164 84 -230 54 -54 133 -92 299 -147 140 -47 178 -86 140 -143
-24 -36 -74 -54 -153 -54 -80 0 -156 20 -230 61 -59 33 -69 31 -114 -26 -31
-40 -32 -131 -2 -172 58 -78 181 -117 364 -117 233 0 369 63 437 202 23 48 28
70 28 137 0 179 -96 273 -372 366 -147 49 -165 61 -161 101 2 20 13 38 31 52
25 18 42 21 140 21 99 -1 120 -4 177 -28 l65 -27 27 32 c82 95 30 215 -111
258 -63 20 -250 35 -296 24z"/>
<path d="M38015 17603 c-170 -23 -334 -132 -403 -269 -53 -104 -66 -166 -66
-299 0 -87 5 -136 18 -179 58 -193 179 -314 372 -372 80 -24 254 -24 344 0
194 53 329 191 375 387 19 82 19 246 0 328 -66 276 -332 445 -640 404z m202
-268 c58 -26 103 -85 125 -160 18 -61 14 -241 -6 -295 -43 -115 -118 -170
-230 -170 -104 1 -172 46 -218 145 -20 44 -23 65 -23 180 0 115 3 136 23 180
46 99 114 144 217 145 43 0 75 -7 112 -25z"/>
<path d="M41065 17596 c-184 -35 -292 -143 -303 -302 -8 -127 42 -220 153
-284 29 -17 114 -52 189 -79 74 -26 146 -56 160 -65 54 -35 39 -103 -29 -132
-45 -19 -158 -18 -226 2 -30 9 -78 29 -108 46 l-54 30 -41 -41 c-39 -39 -41
-45 -41 -100 0 -70 19 -102 86 -143 72 -45 158 -62 299 -62 233 0 369 63 437
202 23 48 28 70 28 137 0 179 -96 273 -372 366 -147 49 -165 61 -161 101 2 20
13 38 31 52 25 18 42 21 140 20 99 0 120 -3 177 -27 l65 -28 27 33 c81 96 31
215 -109 258 -87 27 -252 35 -348 16z"/>
<path d="M42765 17604 c-218 -34 -372 -160 -441 -360 -24 -69 -28 -95 -28
-204 0 -93 4 -140 18 -184 72 -237 247 -374 501 -392 225 -16 435 86 533 257
87 153 97 413 23 581 -62 138 -187 242 -342 284 -57 15 -213 26 -264 18z m206
-271 c104 -54 153 -189 131 -366 -20 -163 -95 -247 -227 -255 -35 -2 -79 1
-98 7 -53 18 -112 74 -138 133 -21 47 -24 67 -24 183 0 116 3 136 24 183 58
130 203 180 332 115z"/>
<path d="M48135 17596 c-95 -19 -155 -47 -211 -98 -68 -62 -94 -124 -94 -223
0 -97 26 -161 88 -217 54 -48 113 -78 255 -127 145 -50 175 -66 188 -97 24
-65 -43 -114 -156 -114 -86 0 -156 18 -231 59 -54 29 -59 30 -81 15 -79 -51
-84 -174 -11 -240 80 -73 264 -108 442 -85 169 23 267 81 324 191 33 62 34 69
30 155 -8 181 -90 260 -368 356 -149 52 -179 74 -161 121 15 40 67 58 163 58
77 0 145 -16 229 -54 23 -10 66 38 80 87 18 69 -17 139 -91 177 -79 41 -277
59 -395 36z"/>
<path d="M3238 17590 c-97 -12 -177 -38 -204 -65 l-24 -24 0 -467 c0 -517 0
-519 63 -546 33 -13 189 -17 220 -5 15 6 17 27 17 177 l0 170 54 0 55 0 91
-145 c51 -80 105 -156 121 -170 86 -71 237 -47 281 46 16 32 16 33 -20 85 -21
29 -72 97 -114 152 l-77 100 51 38 c60 45 113 118 129 177 6 23 9 81 7 128 -8
175 -103 284 -293 336 -62 17 -268 25 -357 13z m262 -253 c48 -17 80 -68 80
-126 0 -58 -16 -89 -59 -118 -29 -20 -47 -23 -122 -23 l-89 0 0 134 c0 98 3
136 13 139 24 10 142 6 177 -6z"/>
<path d="M13825 17589 c-104 -14 -168 -35 -195 -64 l-25 -27 -3 -416 c-4 -491
-1 -535 37 -573 34 -33 108 -45 202 -33 l64 9 3 163 2 162 88 0 c241 0 383 71
454 226 19 41 23 66 23 159 0 105 -2 114 -33 177 -52 105 -134 168 -267 203
-75 19 -257 27 -350 14z m263 -253 c52 -27 75 -62 79 -118 8 -108 -48 -158
-179 -158 l-78 0 0 145 0 145 75 0 c46 0 87 -6 103 -14z"/>
<path d="M16148 17590 c-93 -12 -179 -38 -205 -63 l-23 -20 0 -476 c0 -453 1
-478 19 -508 27 -43 99 -60 203 -47 l73 9 3 173 2 172 53 0 53 0 87 -138 c115
-183 160 -222 251 -222 64 1 166 72 166 116 0 19 -35 71 -139 203 l-81 103 65
61 c37 33 78 83 93 111 24 46 27 62 27 151 0 87 -4 107 -27 156 -47 101 -136
170 -265 204 -70 19 -263 27 -355 15z m270 -260 c93 -42 98 -186 9 -240 -25
-16 -50 -20 -119 -20 l-88 0 0 134 c0 98 3 136 13 139 32 14 144 6 185 -13z"/>
<path d="M28448 17590 c-93 -12 -179 -38 -205 -63 l-23 -20 0 -476 c0 -453 1
-478 19 -508 27 -43 99 -60 203 -47 l73 9 3 173 2 172 53 0 52 0 89 -140 c49
-78 103 -154 120 -170 71 -70 193 -64 261 12 19 21 35 45 35 54 0 19 -45 86
-127 187 -89 110 -101 129 -83 135 30 10 123 109 148 157 23 44 27 62 27 150
0 83 -4 109 -23 149 -49 108 -136 176 -268 211 -71 19 -263 27 -356 15z m270
-260 c68 -31 92 -115 54 -190 -25 -51 -70 -70 -169 -70 l-83 0 0 134 c0 98 3
136 13 139 32 14 144 6 185 -13z"/>
<path d="M35715 17594 c-184 -27 -237 -47 -254 -96 -13 -38 -14 -860 -2 -928
6 -28 19 -53 35 -66 32 -28 112 -39 197 -28 l64 9 3 163 2 162 88 0 c126 0
207 16 289 56 121 59 181 154 191 299 13 213 -92 354 -305 410 -58 16 -251 27
-308 19z m234 -264 c66 -33 91 -125 53 -200 -25 -51 -71 -70 -164 -70 l-78 0
0 145 0 145 75 0 c55 0 86 -5 114 -20z"/>
<path d="M36730 17589 c-104 -13 -178 -36 -206 -64 l-25 -25 3 -481 3 -481 32
-28 c39 -35 96 -45 195 -34 l73 9 3 173 2 173 52 -3 52 -3 78 -125 c98 -159
139 -205 197 -220 86 -23 174 9 214 77 18 32 18 33 -2 65 -11 18 -63 87 -115
153 l-95 120 27 20 c134 100 188 222 162 368 -27 147 -122 245 -279 289 -79
22 -263 31 -371 17z m284 -262 c40 -27 58 -62 58 -115 0 -105 -48 -142 -186
-142 l-86 0 0 134 c0 98 3 136 13 140 27 12 175 0 201 -17z"/>
<path d="M2200 17576 c-74 -21 -87 -32 -110 -93 -50 -130 -185 -529 -231 -683
-52 -170 -60 -232 -37 -269 29 -47 139 -72 226 -51 l50 12 28 114 28 114 168
0 167 0 11 -42 c37 -145 58 -181 119 -198 51 -14 99 -12 158 5 85 25 84 15 9
288 -99 353 -194 665 -219 717 -33 68 -92 94 -222 97 -59 1 -118 -3 -145 -11z
m164 -348 c13 -46 34 -119 46 -163 12 -43 24 -85 27 -92 4 -10 -20 -13 -111
-13 l-116 0 6 28 c4 15 29 92 55 172 27 79 49 145 49 147 0 2 4 3 9 3 6 0 21
-37 35 -82z"/>
<path d="M6715 17581 l-30 -6 -3 -370 c-1 -221 2 -389 8 -417 45 -213 248
-341 512 -324 213 14 366 118 418 285 18 58 20 92 20 406 0 199 -4 354 -10
369 -17 45 -65 66 -150 65 -41 -1 -88 -4 -105 -8 l-30 -6 -5 -370 c-5 -354 -6
-372 -26 -410 -32 -60 -90 -88 -165 -83 -63 5 -97 23 -133 72 -20 26 -21 44
-26 376 -5 334 -6 350 -26 377 -11 15 -32 34 -45 40 -25 13 -151 16 -204 4z"/>
<path d="M24797 17576 c-26 -7 -59 -24 -72 -36 l-25 -23 0 -476 c0 -433 2
-479 18 -511 27 -55 109 -73 222 -49 47 10 50 12 50 42 0 18 0 171 0 340 0
175 3 306 8 303 5 -3 17 -27 27 -53 10 -26 75 -165 145 -308 91 -188 135 -267
158 -287 63 -53 256 -61 328 -13 l24 15 0 484 c0 328 -4 493 -11 515 -17 49
-59 66 -159 65 -47 0 -93 -3 -103 -7 -16 -6 -17 -31 -17 -339 1 -183 -2 -334
-6 -336 -4 -2 -24 36 -44 85 -63 151 -257 527 -283 552 -27 25 -119 51 -177
50 -19 0 -57 -6 -83 -13z"/>
<path d="M30830 17576 c-95 -26 -79 3 -217 -396 -159 -462 -193 -598 -162
-648 31 -50 137 -74 227 -52 l50 12 28 114 28 114 168 0 167 0 11 -42 c41
-159 64 -191 148 -204 80 -12 202 24 202 59 0 19 -179 646 -235 821 -53 170
-71 195 -155 220 -63 19 -195 20 -260 2z m159 -333 c11 -38 32 -111 47 -163
15 -52 29 -101 31 -107 4 -10 -22 -13 -111 -13 l-116 0 6 28 c3 15 28 92 55
171 27 79 49 146 49 148 0 1 4 3 10 3 5 0 18 -30 29 -67z"/>
<path d="M43707 17576 c-26 -7 -59 -24 -72 -36 l-25 -23 0 -475 c0 -517 1
-523 57 -553 29 -16 145 -19 207 -6 l39 8 -8 340 c-4 189 -3 339 2 339 4 0 21
-33 37 -72 15 -40 83 -183 150 -318 134 -272 140 -279 244 -301 68 -14 187 -1
227 25 l25 16 0 484 c0 328 -4 493 -11 515 -17 49 -59 66 -159 65 -135 0 -122
39 -118 -354 2 -187 0 -340 -3 -340 -3 0 -20 33 -37 73 -57 134 -253 527 -280
558 -14 18 -41 38 -58 45 -49 21 -161 26 -217 10z"/>
<path d="M45132 17569 c-75 -24 -58 9 -177 -334 -110 -317 -195 -599 -195
-647 0 -85 105 -136 227 -110 31 6 60 17 65 24 4 7 13 37 19 67 6 30 18 77 26
103 l14 48 166 -2 166 -3 22 -80 c38 -142 58 -160 180 -160 62 1 89 6 122 23
l42 22 -24 87 c-102 381 -250 869 -273 903 -10 14 -40 36 -68 50 -69 35 -220
39 -312 9z m210 -425 c25 -87 47 -165 47 -171 1 -10 -28 -13 -113 -13 l-115 0
20 68 c35 125 94 282 104 279 5 -2 31 -75 57 -163z"/>
<path d="M5165 17567 l-50 -12 0 -512 c0 -484 1 -512 19 -531 28 -32 111 -47
198 -36 l73 9 3 500 c2 360 -1 508 -9 528 -7 15 -25 35 -42 44 -40 20 -130 25
-192 10z"/>
<path d="M7950 17574 c-14 -3 -35 -7 -47 -9 l-23 -5 0 -486 c0 -651 -34 -597
375 -602 300 -4 336 1 360 48 19 37 19 120 1 165 l-15 35 -205 0 -205 0 -3
388 c-3 411 -4 416 -52 447 -24 16 -139 28 -186 19z"/>
<path d="M18105 17574 c-11 -3 -37 -10 -57 -15 l-38 -10 0 -472 c0 -260 5
-490 10 -512 5 -22 20 -50 34 -62 32 -27 112 -38 197 -27 l64 9 3 498 c2 546
2 550 -56 577 -30 13 -125 22 -157 14z"/>
<path d="M18579 17566 c-52 -18 -99 -54 -99 -76 0 -74 225 -710 315 -890 41
-81 55 -94 129 -115 74 -22 163 -15 236 16 49 21 53 26 95 113 104 218 242
611 275 786 20 104 -18 161 -116 176 -46 7 -142 -10 -168 -29 -10 -8 -42 -113
-91 -307 -96 -381 -119 -463 -131 -467 -10 -3 -30 59 -159 495 -49 164 -80
251 -95 267 -22 23 -88 45 -132 45 -13 -1 -39 -7 -59 -14z"/>
<path d="M41860 17569 c-25 -6 -49 -16 -55 -23 -7 -9 -8 -187 -5 -513 6 -571
-1 -532 96 -554 36 -8 75 -9 126 -3 l73 9 3 500 c2 360 -1 508 -9 528 -7 15
-25 35 -42 44 -38 19 -128 25 -187 12z"/>
<path d="M46030 17574 c-14 -3 -35 -7 -48 -10 l-23 -5 3 -494 c3 -481 4 -494
24 -521 11 -15 33 -37 48 -48 26 -20 43 -21 308 -24 296 -3 324 0 353 42 19
27 19 126 1 171 l-15 35 -205 0 -206 0 0 375 c0 406 -2 426 -53 460 -25 16
-138 28 -187 19z"/>
<path d="M4080 17557 c-55 -27 -74 -113 -44 -200 l16 -46 136 -3 137 -3 5
-388 5 -389 27 -23 c34 -29 112 -40 199 -29 l64 9 3 413 2 412 110 0 c122 0
170 13 191 52 18 33 15 138 -5 176 l-17 32 -402 0 c-301 0 -408 -3 -427 -13z"/>
<path d="M12725 17559 c-17 -4 -41 -18 -54 -30 -50 -47 -51 -58 -51 -511 0
-587 -33 -541 395 -546 321 -4 355 1 380 48 19 37 19 120 1 165 l-15 35 -230
0 -231 0 0 94 0 95 191 3 191 3 25 29 c23 27 25 36 21 101 -5 109 4 105 -229
105 l-199 0 0 84 0 85 216 3 216 3 24 28 c20 23 24 39 24 91 0 35 -5 77 -11
95 l-11 31 -311 -1 c-172 0 -326 -5 -342 -10z"/>
<path d="M16985 17556 c-17 -7 -36 -25 -43 -40 -16 -37 -15 -129 2 -171 l15
-35 135 0 135 0 3 -386 3 -386 32 -28 c38 -34 110 -46 204 -34 l64 9 3 412 2
411 125 4 c120 3 126 4 151 30 36 35 44 118 19 183 l-17 45 -401 0 c-310 -1
-409 -4 -432 -14z"/>
<path d="M22295 17551 c-16 -10 -40 -29 -52 -42 l-22 -24 43 -90 c50 -104 140
-259 249 -429 l77 -119 0 -152 c0 -138 2 -155 20 -178 29 -36 105 -52 201 -41
l74 9 5 190 5 190 114 189 c184 306 214 386 172 453 -32 51 -72 66 -157 61
-41 -3 -83 -12 -96 -20 -17 -11 -46 -72 -102 -212 -43 -108 -82 -198 -87 -201
-5 -3 -47 72 -95 166 -99 199 -116 224 -166 250 -50 25 -142 26 -183 0z"/>
<path d="M23800 17548 c-26 -14 -53 -37 -65 -58 -19 -34 -20 -52 -20 -470 0
-418 1 -436 20 -470 12 -21 39 -44 65 -58 44 -22 50 -23 347 -20 l303 3 27 28
c24 24 28 35 28 90 0 34 -6 77 -14 95 l-13 32 -234 0 -234 0 0 95 0 95 175 0
c199 0 233 8 255 59 14 35 9 126 -10 160 -10 20 -18 21 -215 21 l-205 0 0 85
0 85 200 0 c234 0 261 6 280 65 13 40 9 113 -9 158 l-11 27 -313 0 c-305 0
-314 -1 -357 -22z"/>
<path d="M38966 17560 c-37 -12 -75 -47 -92 -87 -21 -48 -20 -879 0 -928 24
-56 56 -70 166 -70 52 1 103 4 113 8 15 6 17 24 17 192 l0 185 170 0 c187 0
216 7 238 55 16 36 15 118 -2 160 l-15 35 -200 0 -201 0 0 105 0 105 199 0
c218 0 254 7 276 51 19 36 19 120 1 164 l-15 35 -313 -1 c-172 0 -326 -5 -342
-9z"/>
<path d="M39925 17559 c-17 -4 -41 -18 -54 -30 -50 -47 -51 -58 -51 -511 0
-587 -33 -541 395 -546 321 -4 355 1 380 48 19 37 19 120 1 165 l-15 35 -230
0 -231 0 0 94 0 95 191 3 191 3 25 29 c23 27 25 36 21 101 -5 109 4 105 -229
105 l-199 0 0 84 0 85 216 3 216 3 24 28 c20 23 24 39 24 91 0 35 -5 77 -11
95 l-11 31 -311 -1 c-172 0 -326 -5 -342 -10z"/>
<path d="M46970 17548 c-26 -14 -53 -37 -65 -58 -19 -33 -20 -55 -23 -425 -2
-214 -1 -413 3 -442 3 -29 16 -67 29 -85 41 -62 48 -63 393 -63 l313 0 27 28
c24 24 28 35 28 90 0 34 -6 77 -14 95 l-13 32 -234 0 -234 0 0 95 0 95 175 0
c199 0 233 8 255 59 14 34 10 108 -9 154 l-11 27 -205 0 -205 0 0 85 0 85 200
0 c234 0 261 6 280 65 13 40 9 113 -9 158 l-11 27 -313 0 c-305 0 -314 -1
-357 -22z"/>
</g>
</svg>
